<?xml version="1.0" standalone="no"?>
<!DOCTYPE svg PUBLIC "-//W3C//DTD SVG 20010904//EN"
 "http://www.w3.org/TR/2001/REC-SVG-20010904/DTD/svg10.dtd">
<svg version="1.0" xmlns="http://www.w3.org/2000/svg"
 width="512.000000pt" height="512.000000pt" viewBox="0 0 512.000000 512.000000"
 preserveAspectRatio="xMidYMid meet">
<metadata>
Created by potrace 1.14, written by Peter Selinger 2001-2017
</metadata>
<g transform="translate(0.000000,512.000000) scale(0.100000,-0.100000)"
fill="#000000" stroke="none">
<path d="M2455 5028 c-27 -5 -63 -9 -80 -8 -16 0 -73 -6 -125 -14 -52 -8 -127
-19 -167 -25 -47 -7 -85 -20 -109 -36 -27 -18 -50 -25 -87 -25 -28 0 -76 -8
-106 -18 -31 -11 -77 -24 -103 -30 -52 -13 -218 -90 -218 -102 0 -11 -109 -90
-124 -90 -26 0 -101 -31 -121 -50 -11 -11 -48 -33 -81 -49 -33 -17 -78 -46
-99 -64 -22 -18 -55 -42 -73 -53 -22 -13 -36 -31 -44 -57 -9 -31 -24 -47 -82
-85 -39 -26 -102 -79 -141 -118 -109 -111 -153 -171 -202 -275 -17 -36 -47
-82 -67 -102 -20 -20 -36 -41 -36 -48 0 -6 -9 -22 -20 -36 -14 -18 -20 -41
-20 -75 0 -47 -27 -119 -50 -133 -6 -4 -22 -30 -35 -58 -14 -29 -29 -59 -34
-67 -5 -8 -14 -40 -21 -70 -13 -61 -36 -149 -51 -195 -5 -16 -14 -97 -20 -180
-8 -116 -14 -156 -28 -175 -16 -22 -17 -44 -14 -210 3 -102 9 -198 14 -215 6
-16 12 -77 15 -135 4 -101 17 -180 35 -228 5 -13 9 -31 9 -40 0 -9 11 -44 25
-77 13 -33 25 -75 25 -93 0 -18 11 -52 24 -75 13 -23 29 -60 36 -82 22 -72
141 -298 201 -381 33 -44 59 -86 59 -91 0 -6 23 -28 51 -49 28 -22 70 -68 94
-104 24 -36 57 -78 75 -95 17 -16 40 -45 51 -62 15 -23 35 -38 71 -50 29 -10
57 -28 67 -43 35 -54 150 -160 192 -179 61 -26 149 -87 176 -121 14 -17 37
-30 60 -35 43 -8 139 -65 190 -113 58 -53 86 -70 166 -96 41 -14 89 -32 107
-41 17 -9 70 -25 118 -35 48 -11 109 -27 136 -35 27 -8 76 -15 108 -15 32 0
112 -10 176 -22 64 -13 142 -22 172 -21 30 1 136 6 235 10 175 8 183 10 300
50 138 48 335 109 383 118 18 4 57 22 88 40 30 18 87 40 128 49 60 14 82 25
129 64 31 26 86 65 123 87 36 22 85 56 108 76 22 20 68 50 101 67 84 42 264
214 331 317 28 44 93 121 144 170 109 107 113 112 196 263 194 349 294 754
293 1182 0 109 -4 167 -14 195 -8 22 -15 51 -15 65 0 72 -47 324 -85 455 -12
44 -26 96 -29 115 -4 19 -50 128 -104 243 -81 175 -102 211 -129 227 -17 10
-39 34 -49 52 -9 18 -25 42 -35 53 -34 38 -69 90 -92 140 -40 84 -278 319
-457 451 -136 100 -324 200 -395 208 -34 4 -59 15 -80 34 -44 41 -87 68 -115
75 -14 3 -56 12 -93 21 -38 8 -92 26 -120 40 -40 19 -74 25 -151 29 -54 3
-103 10 -109 16 -6 6 -31 11 -56 11 -26 0 -77 11 -116 25 -59 21 -89 25 -185
25 -63 0 -129 4 -145 8 -17 4 -52 4 -80 0z m445 -93 c223 -28 420 -77 420
-103 0 -10 7 -13 22 -9 22 6 239 -73 268 -98 8 -7 35 -22 60 -33 53 -24 102
-54 111 -65 3 -5 8 -8 10 -6 2 1 14 -1 25 -5 19 -6 20 -10 10 -31 -13 -28 -24
-32 -32 -10 -11 27 -34 17 -34 -14 0 -16 -4 -31 -9 -33 -5 -1 -27 -30 -50 -62
-40 -58 -81 -97 -81 -77 0 5 7 14 15 18 8 5 20 35 26 67 6 32 15 70 21 85 16
40 17 63 1 94 -16 32 -22 33 -56 7 -24 -19 -25 -19 -30 -1 -3 14 -1 18 10 14
27 -11 -12 52 -41 65 -30 13 -47 -2 -23 -21 20 -16 31 -54 17 -62 -5 -3 -10
-16 -10 -28 1 -25 24 -60 34 -50 9 10 -15 -60 -25 -71 -5 -6 -9 -16 -9 -24 0
-8 -7 -20 -17 -27 -14 -11 -9 -17 46 -54 34 -22 65 -41 68 -41 3 0 22 -13 43
-30 21 -16 41 -30 44 -30 4 0 32 -18 62 -41 52 -38 57 -40 86 -28 17 7 41 23
54 36 13 13 29 23 36 23 7 0 1 -8 -13 -17 -29 -17 -52 -85 -42 -123 4 -17 2
-21 -8 -18 -8 3 -13 12 -11 21 1 8 -2 18 -8 22 -5 3 -10 1 -10 -5 0 -6 -5 -8
-11 -5 -6 4 -8 13 -5 21 3 7 1 16 -4 19 -4 3 -10 -1 -13 -7 -3 -10 -10 -8 -26
6 -11 11 -29 24 -39 30 -10 6 -47 30 -83 54 -103 70 -342 185 -473 228 -70 22
-91 48 -26 31 31 -9 43 -8 52 2 11 10 9 15 -6 26 -18 14 -18 17 12 113 28 86
30 102 20 130 -10 25 -18 32 -40 32 -22 0 -29 -6 -34 -27 -3 -16 -12 -42 -19
-58 -8 -17 -19 -53 -26 -80 -6 -28 -13 -56 -15 -62 -4 -15 -23 -17 -43 -4 -9
6 -11 16 -6 27 4 11 8 33 10 49 2 17 6 44 9 60 4 17 9 51 12 76 l6 45 -45 10
-45 11 -7 -44 c-3 -23 -10 -43 -16 -43 -5 0 -9 -9 -9 -20 0 -21 -24 -27 -48
-11 -13 8 -11 55 4 102 5 19 -13 29 -68 35 -41 5 -44 0 -48 -71 -1 -22 -3 -58
-4 -80 -3 -53 -13 -70 -32 -54 -11 9 -21 4 -49 -25 -70 -73 -115 -37 -115 91
0 88 4 97 43 112 23 9 33 8 52 -7 26 -18 45 -53 45 -79 0 -13 3 -14 11 -6 8 8
9 30 5 67 -7 50 -10 55 -29 52 -12 -2 -34 3 -49 10 -33 17 -78 18 -112 3 -38
-18 -56 -66 -56 -152 0 -95 23 -135 90 -155 83 -25 149 -1 150 55 0 16 5 20
20 16 25 -7 25 -11 -1 -39 l-21 -22 38 -11 c22 -6 54 -11 72 -11 23 0 32 -4
29 -12 -2 -8 -17 -12 -33 -10 -16 1 -82 5 -146 8 -65 4 -118 10 -118 15 0 5
-5 9 -11 9 -5 0 -8 -4 -5 -9 3 -5 -15 -7 -42 -6 -54 4 -295 -10 -332 -19 -14
-3 -46 -9 -71 -12 -38 -5 -46 -3 -46 10 0 12 6 15 21 10 12 -4 18 -3 14 1 -4
4 4 17 18 29 13 11 31 39 39 61 l15 40 -5 -58 -5 -58 50 2 c55 3 68 12 50 34
-8 10 -10 30 -6 60 6 39 10 45 31 45 18 0 26 -7 31 -25 3 -13 13 -30 21 -37
14 -11 15 -10 10 7 -3 11 -8 35 -12 53 -4 18 -10 30 -14 27 -5 -2 -13 7 -20
22 -9 20 -15 23 -23 15 -22 -22 -38 -13 -38 22 0 28 4 34 25 38 16 3 30 -1 41
-13 25 -28 34 -23 34 15 0 22 -6 36 -16 40 -21 8 -103 8 -143 0 -29 -6 -32
-10 -26 -33 11 -42 14 -121 4 -121 -5 0 -9 11 -9 24 0 13 -8 34 -18 47 -10 13
-21 31 -24 40 -10 26 -81 32 -145 12 -75 -24 -113 -67 -113 -130 0 -80 18
-120 67 -149 33 -19 55 -25 85 -22 63 5 60 -19 -4 -27 -48 -6 -112 -24 -163
-46 -47 -20 -142 -52 -170 -56 -16 -3 -37 -11 -45 -18 -24 -19 -50 -26 -50
-12 0 7 -11 34 -25 61 -13 27 -22 52 -19 57 8 14 57 -17 79 -50 14 -22 28 -31
48 -31 25 0 87 24 87 34 0 3 3 11 6 20 4 10 1 16 -10 16 -15 0 -36 28 -36 50
0 8 4 8 13 0 34 -29 89 -60 98 -55 14 9 11 23 -11 45 -11 11 -20 27 -20 35 0
18 -14 19 -39 3 -10 -6 -26 -8 -34 -5 -15 6 -78 116 -83 145 -4 23 -9 23 -67
5 -53 -17 -55 -19 -50 -48 4 -16 11 -33 17 -37 16 -10 3 -18 -21 -12 -11 3
-25 16 -31 30 -11 22 -42 25 -42 3 0 -5 -7 -9 -15 -9 -24 0 -18 19 10 32 14 6
25 16 25 21 0 6 3 8 6 4 3 -3 26 5 51 19 25 13 54 24 64 24 10 0 21 5 24 10 4
6 11 8 16 5 5 -4 16 1 25 9 8 9 41 23 72 32 31 9 62 19 67 23 10 7 103 29 216
51 30 6 63 8 72 4 9 -3 17 -2 17 4 0 38 498 50 750 17z m-814 -83 c23 -15 33
-51 35 -127 2 -71 0 -80 -20 -93 -34 -23 -65 -3 -85 54 -20 59 -20 94 -2 139
15 35 44 46 72 27z m926 -134 c3 -7 1 -32 -4 -55 -9 -44 -33 -58 -44 -28 -4 8
-12 15 -19 15 -12 0 -14 16 -6 62 0 4 13 9 29 11 15 2 30 5 33 6 4 0 9 -5 11
-11z m-1331 -100 c17 -33 27 -63 24 -66 -8 -8 -66 58 -60 68 2 4 0 21 -5 39
-13 48 6 28 41 -41z m-245 47 c-3 -10 6 -23 29 -38 26 -17 41 -39 65 -99 33
-85 35 -99 18 -116 -15 -15 -58 -16 -58 -2 0 6 -9 10 -21 10 -14 0 -19 5 -16
14 4 10 -8 20 -38 33 -24 10 -49 27 -55 38 -17 32 -77 66 -104 59 -19 -4 -23
-12 -22 -34 1 -16 10 -38 19 -48 21 -23 22 -52 2 -52 -8 0 -12 6 -9 15 4 9 -3
16 -21 21 -44 11 -115 -37 -115 -77 0 -12 6 -16 18 -12 21 5 65 -53 87 -116
16 -47 1 -72 -47 -74 -32 -2 -33 -1 -35 38 -2 34 -9 47 -52 86 -28 25 -51 51
-51 57 0 16 -11 15 -47 -3 -55 -27 -52 -105 3 -105 13 0 24 -4 24 -10 0 -5 7
-10 15 -10 17 0 18 -2 9 -24 -9 -23 -27 -20 -53 8 -37 40 -73 48 -115 26 -20
-10 -36 -15 -36 -11 0 6 68 70 199 185 35 31 69 56 75 56 6 0 22 12 35 25 13
14 29 25 36 25 8 0 20 6 27 13 48 45 195 133 227 136 8 1 11 -5 7 -14z m1534
-76 c0 -6 -4 -7 -10 -4 -5 3 -10 11 -10 16 0 6 5 7 10 4 6 -3 10 -11 10 -16z
m114 -8 c21 -5 43 -14 49 -20 13 -13 -98 -4 -126 11 -23 12 -11 31 17 25 11
-3 38 -10 60 -16z m828 -36 c3 3 26 -14 52 -38 l47 -43 -78 -82 c-43 -45 -86
-82 -96 -82 -20 0 -84 28 -92 40 -2 3 1 23 7 43 11 34 14 37 42 32 87 -13 98
-10 135 36 36 44 32 70 -8 50 -11 -6 -30 -15 -41 -21 -23 -12 -81 -14 -63 -2
6 4 15 21 19 37 4 17 11 38 16 48 9 18 11 18 32 -2 12 -12 25 -19 28 -16z
m-1062 -25 c145 -21 307 -60 400 -95 25 -9 56 -19 70 -22 14 -3 36 -14 49 -24
13 -11 32 -19 41 -19 10 0 23 -6 29 -13 6 -8 29 -20 51 -27 22 -7 45 -19 51
-27 6 -7 16 -13 21 -13 10 0 207 -129 234 -153 7 -7 42 -37 76 -67 35 -30 88
-83 118 -118 30 -34 61 -69 68 -77 7 -8 9 -15 3 -15 -5 0 -12 4 -16 10 -8 13
-33 1 -40 -20 -3 -10 -15 -28 -26 -41 -11 -13 -28 -33 -38 -45 -10 -12 -22
-28 -27 -36 -28 -49 -189 -156 -334 -223 -36 -16 -67 -32 -70 -35 -3 -3 -39
-22 -80 -43 -109 -56 -165 -100 -207 -164 -35 -52 -38 -62 -39 -131 -1 -45 4
-85 12 -100 58 -113 -7 -238 -135 -258 -23 -4 -62 -20 -87 -36 l-46 -29 -39
42 c-26 28 -39 52 -39 71 0 15 0 31 -1 36 -1 14 28 25 47 17 15 -6 16 -8 4
-13 -8 -3 -21 -12 -29 -20 -12 -12 -12 -15 0 -23 25 -16 49 -10 61 16 9 19 8
29 -6 50 -9 14 -23 25 -31 25 -8 0 -15 3 -15 7 0 15 55 63 73 63 16 0 17 3 7
15 -7 8 -16 15 -21 15 -18 0 -88 55 -89 69 0 11 4 9 14 -4 14 -19 15 -19 35
-1 48 43 5 126 -65 126 -32 0 -34 2 -34 35 0 41 -19 54 -79 53 -46 0 -73 18
-86 60 -6 19 -3 22 23 22 34 0 138 41 190 74 74 48 136 124 180 221 92 201 31
467 -136 599 -109 85 -277 129 -409 106 -76 -13 -184 -60 -230 -100 -18 -17
-37 -30 -41 -30 -4 0 -22 -23 -41 -50 -19 -28 -37 -50 -40 -50 -22 0 -71 -187
-71 -270 0 -160 102 -355 218 -418 86 -46 143 -72 160 -72 25 0 31 -7 25 -31
-5 -18 -7 -18 -29 6 -31 33 -67 32 -96 -3 l-23 -28 -26 29 c-34 37 -51 28 -47
-27 l3 -41 -42 -3 c-34 -3 -46 -9 -69 -39 -23 -30 -27 -46 -28 -100 -1 -59 1
-67 27 -89 34 -29 70 -31 96 -5 16 16 18 29 14 76 -6 61 5 80 40 69 20 -6 22
6 5 25 -11 10 -8 12 12 9 14 -1 26 -10 28 -19 3 -18 -41 -41 -63 -33 -23 9
-19 -42 5 -76 26 -37 93 -50 139 -27 33 17 46 9 36 -23 -8 -26 -49 -53 -115
-75 -67 -23 -71 -27 -84 -66 -8 -23 -20 -35 -46 -43 -27 -9 -36 -17 -38 -38
-4 -32 21 -39 36 -12 12 21 46 14 50 -9 12 -60 -29 -87 -95 -63 -21 7 -65 21
-98 31 -80 23 -120 56 -139 112 -15 43 -14 51 5 127 58 223 10 291 -326 462
-115 59 -219 115 -231 125 -11 11 -25 19 -31 19 -5 0 -23 12 -39 28 -16 15
-38 34 -49 42 -11 8 -27 25 -35 36 -39 56 -104 130 -123 140 -19 11 -14 18 79
111 95 95 169 160 219 193 63 41 121 81 133 91 30 25 291 147 342 160 30 7 58
18 61 23 4 5 21 6 38 3 20 -4 30 -3 28 5 -1 6 23 17 53 24 30 8 78 19 105 26
141 34 554 50 705 28z m1220 -80 c5 0 36 -23 69 -50 62 -52 69 -72 28 -87 -12
-4 -26 -7 -30 -8 -5 0 -14 -8 -21 -17 -7 -10 -22 -18 -34 -18 -11 0 -22 -7
-26 -15 -3 -8 -9 -15 -14 -15 -5 0 1 21 14 48 31 62 30 97 -3 140 -20 27 -23
34 -9 29 10 -4 22 -7 26 -7z m-2720 -52 c0 -24 4 -29 22 -26 16 2 22 -3 23
-19 2 -24 15 -45 15 -24 0 8 7 10 20 6 15 -5 33 3 65 29 24 20 49 36 57 36 7
0 24 7 37 16 17 12 26 13 34 5 8 -8 7 -11 -5 -11 -8 0 -21 -7 -29 -16 -7 -9
-33 -25 -58 -37 -40 -18 -107 -61 -121 -78 -3 -3 -13 -8 -22 -12 -13 -5 -21 5
-38 49 -11 31 -18 65 -14 78 3 13 1 27 -5 30 -6 4 -11 12 -11 18 0 7 6 6 15
-2 8 -7 15 -26 15 -42z m-69 -11 c29 -22 40 -53 29 -82 -9 -23 -13 -25 -25
-15 -8 7 -15 17 -15 22 0 6 -10 23 -21 40 -18 25 -19 32 -8 39 18 11 21 11 40
-4z m2723 -58 c-21 -24 -29 -18 -14 10 6 12 16 19 21 15 6 -4 4 -13 -7 -25z
m-1451 -6 c-7 -2 -19 -2 -25 0 -7 3 -2 5 12 5 14 0 19 -2 13 -5z m-104 -21
c-26 -9 -78 -34 -115 -55 -59 -32 -76 -49 -119 -112 -27 -41 -51 -79 -51 -85
-1 -5 -2 -17 -3 -25 -1 -13 -31 -23 -31 -10 0 22 68 138 101 173 60 63 186
129 249 130 8 0 -6 -7 -31 -16z m244 11 c-7 -2 -21 -2 -30 0 -10 3 -4 5 12 5
17 0 24 -2 18 -5z m129 -60 c133 -91 200 -216 201 -377 0 -92 -12 -142 -61
-243 -26 -55 -157 -170 -204 -180 -16 -3 -28 -9 -28 -13 0 -14 -139 -33 -193
-27 -66 8 -157 37 -157 50 0 5 8 6 18 2 20 -9 34 -11 127 -24 73 -10 178 0
219 21 56 28 128 85 152 119 15 22 30 39 35 39 10 0 49 82 49 102 0 7 7 31 15
53 31 87 10 230 -48 327 -36 59 -110 129 -182 173 -33 20 -49 34 -35 30 14 -4
55 -27 92 -52z m-158 25 c22 -7 62 -27 88 -45 26 -18 52 -33 57 -33 15 0 81
-62 75 -72 -3 -4 11 -24 30 -43 20 -19 36 -40 36 -47 0 -7 3 -23 6 -35 12 -44
-12 -22 -25 23 l-14 46 -39 -6 c-29 -5 -40 -3 -44 9 -4 8 -15 15 -25 15 -27 0
-24 18 4 22 12 2 21 8 19 13 -3 14 -51 25 -58 14 -3 -6 -19 -1 -37 9 -40 24
-89 40 -146 47 -57 7 -61 10 -61 53 0 28 -3 33 -12 24 -7 -7 -11 -28 -10 -47
2 -29 -1 -35 -17 -35 -11 0 -23 -4 -26 -10 -3 -5 -17 -10 -30 -10 -13 0 -31
-7 -40 -16 -15 -15 -18 -14 -46 12 -16 15 -29 33 -29 38 0 6 4 5 9 -3 6 -9 11
-10 15 -2 4 6 11 9 16 6 4 -3 6 4 3 15 -4 13 0 20 9 20 8 0 14 -10 13 -27 0
-18 5 -28 15 -28 14 0 18 22 9 54 -11 37 168 65 255 39z m1673 -70 c107 -118
152 -170 193 -228 66 -92 135 -206 171 -280 17 -36 45 -92 61 -125 46 -94 123
-319 138 -405 5 -25 15 -85 24 -135 19 -109 39 -303 32 -319 -2 -6 -5 3 -5 19
-1 38 -26 75 -106 159 -50 53 -89 75 -142 80 -97 10 -127 33 -147 111 -9 31
-19 62 -24 69 -5 6 -14 31 -21 56 -15 50 -17 57 -55 148 -14 35 -26 64 -26 65
0 1 14 2 30 3 22 1 30 -3 30 -16 0 -30 22 -80 34 -80 7 0 21 19 31 43 21 47
87 148 123 189 35 39 26 63 -23 62 -22 -1 -93 -3 -157 -4 -65 -1 -120 -5 -123
-10 -9 -15 23 -75 54 -100 16 -14 30 -34 31 -44 0 -11 -3 -16 -7 -13 -3 4 -12
2 -18 -3 -16 -14 -86 121 -78 150 4 16 2 19 -11 14 -10 -4 -16 -1 -16 8 0 7
-18 37 -40 67 -22 29 -40 59 -40 67 0 8 -4 14 -9 14 -15 0 -75 100 -65 110 5
5 23 3 42 -5 30 -13 32 -17 27 -47 -5 -26 -1 -42 19 -71 14 -21 26 -41 26 -45
0 -13 70 -52 93 -52 20 0 94 30 146 58 7 4 27 26 43 49 22 30 28 47 23 63 -8
24 -124 140 -140 140 -6 0 -11 15 -11 33 0 28 -28 107 -38 107 -1 0 -18 -13
-36 -30 -18 -16 -38 -30 -44 -30 -25 0 -96 -43 -96 -59 0 -9 -14 -28 -30 -43
-18 -16 -28 -32 -24 -41 13 -35 -17 -24 -53 19 -21 25 -69 78 -108 117 -38 39
-70 79 -70 89 -2 22 2 22 21 3 20 -19 58 -20 51 -1 -3 8 3 22 13 31 16 14 23
15 34 6 9 -8 16 -8 20 -2 9 14 65 -20 59 -36 -3 -7 -9 -11 -13 -8 -5 3 -11 1
-15 -5 -3 -5 -14 -10 -23 -10 -10 0 -24 -9 -31 -19 -8 -11 -21 -17 -29 -13 -8
3 -13 1 -11 -4 6 -15 95 -94 105 -94 5 0 15 -9 22 -21 7 -12 16 -18 19 -15 3
3 -2 13 -12 22 -16 16 -11 20 72 61 101 51 161 103 118 103 -8 0 -22 12 -32
26 -13 21 -23 25 -50 22 -25 -3 -32 -1 -29 9 3 7 1 25 -5 40 -5 14 -7 33 -5
40 9 22 68 -9 113 -59z m-2977 43 c0 -8 -44 -31 -60 -31 -21 0 -9 20 15 26 14
3 25 10 25 16 0 5 5 6 10 3 6 -3 10 -10 10 -14z m-530 -56 c0 21 3 26 9 16 5
-7 6 -21 4 -31 -6 -24 26 -34 47 -15 16 14 20 13 49 -22 18 -21 43 -50 56 -65
25 -29 25 -52 -2 -62 -19 -8 -77 38 -143 114 -32 37 -56 57 -66 53 -17 -6 -19
8 -2 25 9 9 16 6 30 -16 l18 -27 0 30z m3273 -6 c-26 -11 -33 -10 -33 1 0 6 7
10 16 10 9 0 12 5 8 13 -5 7 -1 6 10 -3 17 -13 17 -14 -1 -21z m-2843 0 c0 -6
-44 -55 -97 -108 -131 -129 -223 -231 -223 -247 0 -7 -4 -14 -9 -16 -26 -10
-190 -287 -231 -389 -10 -26 -28 -66 -38 -90 -11 -24 -34 -88 -51 -143 -31
-100 -85 -208 -118 -238 -31 -29 -94 -46 -125 -36 -38 13 -35 24 6 32 46 9 94
64 103 119 3 23 6 43 6 45 -10 55 -15 64 -48 77 -70 30 -190 7 -183 -35 1 -8
-5 -30 -15 -49 -9 -19 -17 -40 -17 -48 0 -7 -5 -13 -11 -13 -12 0 -9 21 22
145 21 83 80 264 106 325 17 42 82 179 94 200 5 8 18 33 30 55 34 64 126 200
150 221 12 10 25 28 30 39 9 18 9 18 5 -2 -6 -30 8 -29 28 2 20 30 20 36 1 29
-21 -8 -19 3 5 28 17 19 20 19 20 5 0 -14 3 -15 19 -5 15 9 24 7 47 -11 16
-12 29 -30 29 -39 6 -80 5 -78 16 -59 6 10 8 25 5 34 -6 15 79 -52 104 -82 14
-17 40 -20 40 -4 0 6 7 9 15 6 16 -7 125 111 125 135 0 8 -9 24 -21 37 -13 14
-18 28 -14 39 6 14 11 12 34 -15 15 -18 35 -33 44 -33 9 0 37 20 62 44 37 36
42 45 28 49 -14 4 -13 5 5 6 12 0 22 -4 22 -10z m1080 -67 c0 -21 -39 -72 -56
-72 -8 0 -14 5 -14 11 0 5 -4 7 -10 4 -6 -3 -7 1 -4 10 4 8 0 23 -7 32 -12 15
-12 16 5 10 15 -6 17 -3 12 16 -4 17 0 25 17 33 18 8 25 6 39 -10 10 -12 18
-27 18 -34z m296 37 c46 -9 66 -19 90 -45 17 -19 36 -34 42 -34 7 0 12 -11 12
-25 0 -14 5 -25 10 -25 6 0 10 5 10 10 0 6 5 10 10 10 14 0 12 -23 -4 -45 -13
-18 -15 -18 -30 -2 -10 9 -15 21 -12 26 4 5 -8 20 -26 32 -18 13 -36 27 -39
32 -3 5 -15 7 -25 5 -13 -2 -20 4 -22 20 -2 12 -8 19 -14 16 -14 -9 -88 -12
-88 -3 0 4 -15 6 -32 5 -19 -2 -32 -7 -30 -14 3 -15 -24 -16 -33 -2 -3 6 -11
10 -17 10 -7 0 -6 -5 2 -15 17 -21 3 -39 -16 -20 -9 8 -20 13 -25 10 -5 -4 -9
-4 -9 -1 0 13 55 40 103 52 67 16 73 16 143 3z m-1903 -19 c-5 -19 -23 -39
-23 -25 0 9 20 45 24 45 2 0 2 -9 -1 -20z m1807 -30 c0 -5 19 -9 43 -8 55 1
147 -41 147 -68 0 -5 9 -17 19 -26 46 -39 53 -170 13 -246 -23 -45 -56 -82
-72 -82 -5 0 -10 -9 -10 -20 0 -23 18 -27 26 -5 4 8 9 13 14 10 4 -2 12 7 18
20 12 26 36 33 48 14 7 -12 -43 -69 -62 -69 -7 0 -14 -4 -16 -10 -1 -5 -15
-11 -30 -12 -15 -1 -30 -8 -33 -16 -3 -9 -17 -11 -45 -8 -22 3 -40 1 -40 -5 0
-5 -9 -9 -20 -9 -11 0 -20 5 -20 11 0 6 -9 8 -20 4 -14 -4 -20 -2 -20 8 0 12
11 14 51 12 54 -3 79 1 79 15 0 4 -26 8 -57 9 -32 0 -59 5 -61 11 -2 5 -8 7
-13 4 -20 -12 -119 73 -119 104 0 6 -4 12 -9 12 -15 0 -22 44 -8 55 7 6 12 36
12 80 -1 57 4 76 22 104 13 19 23 37 23 42 0 4 18 15 40 25 22 10 40 22 40 27
0 5 7 6 15 3 9 -3 18 1 21 9 7 17 24 20 24 5z m1665 -26 c-48 -42 -84 -59 -98
-45 -14 14 31 50 63 51 14 0 34 7 44 15 37 28 31 14 -9 -21z m-1805 -3 c0 -6
-4 -13 -10 -16 -5 -3 -10 1 -10 9 0 9 5 16 10 16 6 0 10 -4 10 -9z m-180 -20
c0 -5 14 -14 31 -21 22 -9 28 -17 23 -29 -26 -63 -31 -221 -7 -257 7 -11 10
-24 6 -28 -4 -4 3 -15 16 -25 22 -17 23 -19 7 -49 -9 -17 -21 -34 -27 -38 -8
-4 -9 -3 -5 4 4 7 1 12 -9 12 -9 0 -13 4 -10 10 3 5 2 17 -3 27 -10 16 2 50
22 64 16 12 -15 21 -49 15 -33 -6 -34 -5 -41 30 -5 26 -3 39 7 45 12 8 11 11
-3 20 -12 6 -18 22 -18 45 0 28 5 36 26 44 20 8 24 14 18 33 -4 12 -10 24 -15
27 -10 7 11 80 23 80 4 0 8 -4 8 -9z m149 -35 c1 -5 -5 -3 -13 4 -8 6 -12 19
-9 27 6 14 8 14 14 -3 4 -10 8 -23 8 -28z m535 10 c-3 -8 -1 -29 4 -48 10 -39
6 -58 -14 -58 -8 0 -14 10 -14 24 0 14 -7 31 -15 40 -21 21 -19 35 8 46 32 13
37 12 31 -4z m-559 -36 c3 -5 1 -10 -4 -10 -6 0 -11 5 -11 10 0 6 2 10 4 10 3
0 8 -4 11 -10z m-195 -13 c0 -16 -27 -54 -33 -47 -10 10 6 60 19 60 8 0 14 -6
14 -13z m667 -39 c-8 -24 -12 -28 -15 -15 -5 23 4 47 17 47 6 0 5 -13 -2 -32z
m152 -118 c-8 -77 -27 -150 -39 -150 -4 0 -12 -11 -18 -24 -22 -48 -88 -120
-102 -111 -6 3 -10 18 -10 32 0 16 -7 27 -20 30 -20 5 -25 15 -14 26 9 9 44
-37 44 -57 0 -18 8 -20 29 -7 10 6 10 10 1 16 -9 6 -9 10 1 17 11 8 11 11 1
15 -10 4 -10 8 -1 19 9 12 15 12 28 2 14 -12 14 -11 3 4 -15 19 -8 38 13 38
17 0 50 46 59 82 5 24 2 28 -29 38 -33 11 -35 14 -35 55 0 39 3 44 29 53 16 6
35 21 42 34 l13 23 6 -30 c4 -17 3 -64 -1 -105z m1448 117 c19 -10 13 -12 -43
-12 -54 0 -62 2 -47 13 21 15 61 15 90 -1z m-2103 -13 c3 -8 2 -12 -4 -9 -6 3
-10 10 -10 16 0 14 7 11 14 -7z m-5 -27 c8 -10 7 -14 -4 -14 -8 0 -15 6 -15
14 0 7 2 13 4 13 2 0 9 -6 15 -13z m551 -8 c0 -16 -5 -20 -27 -17 -31 4 -42
24 -16 31 35 9 43 7 43 -14z m1440 17 c0 -2 -8 -10 -17 -17 -16 -13 -17 -12
-4 4 13 16 21 21 21 13z m-2171 -18 c-1 -7 -5 -24 -9 -38 -7 -22 -8 -21 -9 13
-1 20 4 37 9 37 6 0 10 -6 9 -12z m2363 -15 c26 -24 22 -45 -15 -84 -61 -62
-84 -79 -110 -79 -40 0 -52 73 -17 105 11 10 20 15 20 11 0 -5 16 8 36 28 40
40 58 44 86 19z m-2195 -35 c-3 -7 -5 -2 -5 12 0 14 2 19 5 13 2 -7 2 -19 0
-25z m563 -16 c0 -10 -7 -12 -27 -7 -35 8 -35 9 -27 28 5 13 10 14 30 5 13 -6
24 -18 24 -26z m-520 7 c0 -14 -17 -10 -23 5 -4 10 -1 13 9 9 7 -3 14 -9 14
-14z m1845 -129 c112 -171 196 -345 245 -510 13 -41 27 -86 32 -99 11 -31 44
-224 53 -315 8 -81 8 -312 0 -371 -3 -22 -7 -56 -9 -75 -14 -119 -39 -249 -57
-298 -12 -31 -29 -82 -39 -112 -34 -102 -109 -262 -151 -322 -11 -14 -19 -29
-19 -33 0 -6 -34 -53 -105 -144 -153 -196 -296 -327 -540 -495 -59 -41 -145
-89 -145 -80 0 3 -12 -3 -27 -14 -52 -37 -366 -151 -428 -156 -11 0 -22 -4
-25 -7 -3 -3 -52 -13 -110 -22 -137 -20 -500 -16 -610 7 -41 8 -88 18 -105 21
-16 4 -39 10 -50 14 -11 5 -65 22 -120 39 -190 58 -370 137 -451 199 -17 12
-36 23 -41 23 -6 0 -17 7 -24 16 -7 9 -35 31 -61 48 -48 33 -211 178 -257 230
-14 17 -39 44 -55 60 -15 17 -42 49 -60 70 -17 21 -42 53 -56 70 -14 17 -34
44 -45 61 -10 16 -22 34 -27 40 -33 38 -188 341 -188 365 0 6 -14 52 -30 103
-47 142 -70 296 -76 507 -3 102 0 221 5 265 24 189 32 241 41 257 6 10 10 26
10 35 0 29 64 210 111 318 53 122 124 243 204 350 l60 80 7 -90 c4 -49 14
-115 23 -145 8 -30 25 -107 36 -170 18 -101 52 -224 78 -285 5 -11 14 -40 21
-65 6 -25 22 -67 35 -95 87 -187 119 -248 162 -313 58 -85 182 -227 230 -261
18 -13 33 -28 33 -32 0 -5 18 -20 39 -33 22 -14 50 -36 63 -49 13 -13 54 -40
90 -61 70 -39 273 -125 296 -126 9 0 12 -13 10 -46 -3 -43 -5 -47 -40 -59 -90
-30 -171 -134 -185 -235 -5 -30 -12 -38 -53 -57 -26 -13 -63 -23 -84 -23 -21
0 -52 -10 -75 -24 -40 -26 -107 -56 -122 -56 -5 0 -9 5 -9 10 0 6 6 10 14 10
8 0 16 3 18 8 2 4 29 19 61 34 42 21 57 33 57 48 0 22 -21 35 -42 27 -7 -2
-17 -5 -23 -7 -5 -1 -16 -6 -22 -12 -7 -6 -13 -7 -13 -3 0 4 -12 0 -26 -10
-14 -9 -28 -14 -31 -11 -3 3 -6 29 -7 58 -2 29 -6 63 -10 75 -7 19 -3 26 24
40 81 45 93 64 65 107 -15 23 -16 23 -82 9 -37 -7 -70 -18 -74 -25 -4 -6 -12
-9 -19 -6 -7 2 -2 14 14 31 28 30 33 53 15 59 -8 3 -7 13 4 35 9 17 13 33 10
37 -15 15 -9 46 9 46 10 0 18 -8 19 -17 1 -10 3 -31 5 -46 2 -23 0 -26 -10
-18 -10 9 -15 8 -20 -5 -10 -26 -7 -36 9 -30 17 6 21 -9 5 -19 -14 -9 -13 -28
2 -23 13 5 37 77 41 126 3 25 -2 37 -17 48 -26 18 -50 18 -66 -1 -11 -13 -14
-13 -26 2 -11 15 -15 15 -23 4 -16 -24 -20 1 -10 69 4 26 0 30 -28 30 -19 0
-133 -116 -133 -135 0 -17 -39 -103 -41 -90 -2 12 -2 10 4 68 3 27 12 58 20
70 8 12 20 40 27 62 7 22 27 56 46 75 25 26 31 39 24 50 -5 8 -10 27 -10 43 0
16 -5 27 -14 27 -13 0 -63 -35 -79 -55 -5 -5 -5 6 -1 25 3 19 10 40 14 45 4 6
11 37 14 70 12 114 -26 109 -79 -10 -29 -65 -55 -91 -55 -55 0 10 -9 22 -20
25 -13 4 -20 15 -20 31 0 13 -4 24 -8 24 -16 0 -28 65 -20 109 9 53 2 65 -19
34 -21 -31 -33 -29 -33 5 -1 23 -2 25 -11 9 -5 -9 -8 -21 -5 -26 9 -14 -4 -41
-20 -41 -19 0 -18 13 4 58 10 20 17 43 16 50 -1 6 -2 29 -3 50 -1 43 -32 85
-56 76 -8 -4 -15 -14 -15 -24 0 -24 -52 -109 -66 -110 -7 0 -15 7 -18 16 -3 8
-2 13 3 10 5 -3 11 1 15 9 3 10 -1 15 -14 15 -19 0 -36 -32 -26 -49 3 -5 -4
-12 -17 -15 -12 -3 -35 -16 -52 -30 -28 -22 -29 -25 -16 -50 11 -19 20 -25 34
-20 12 4 17 2 13 -4 -3 -6 4 -18 16 -27 l23 -17 -22 5 c-13 3 -23 2 -23 -2 0
-13 -44 -56 -57 -57 -29 -2 -33 -5 -33 -23 0 -12 15 -28 42 -43 22 -13 41 -27
40 -33 0 -5 7 -19 16 -29 16 -18 16 -19 0 -13 -21 8 -33 -9 -19 -27 15 -18 9
-96 -6 -96 -15 0 -16 -4 -4 -28 33 -66 50 -114 44 -127 -5 -14 2 -16 44 -13
36 2 49 7 46 15 -3 7 0 13 6 13 6 0 11 -6 11 -13 0 -6 13 -25 30 -40 20 -19
30 -38 30 -58 0 -30 -3 -31 -60 -33 -18 -1 -25 -7 -25 -21 0 -25 56 -46 101
-38 31 5 32 3 39 -35 6 -39 8 -40 39 -35 20 3 36 1 40 -6 15 -24 24 -9 19 30
-6 40 -5 41 16 29 18 -9 21 -17 16 -41 -14 -61 39 -79 91 -31 l30 28 19 -25
c15 -19 18 -41 17 -113 -1 -76 2 -92 19 -109 10 -10 19 -22 19 -26 0 -5 11
-21 24 -38 l23 -29 -25 -38 c-25 -39 -35 -100 -17 -106 6 -2 19 12 30 32 11
19 35 47 54 61 40 29 49 32 30 9 -12 -14 -7 -21 31 -55 25 -21 53 -41 62 -44
25 -9 57 12 64 41 7 26 67 64 102 64 11 0 25 7 32 15 7 9 32 20 56 26 24 6 49
17 55 25 6 8 18 14 25 14 7 0 23 18 34 40 23 46 28 47 62 21 32 -25 112 -36
163 -22 26 7 55 27 83 57 40 42 45 44 61 30 10 -9 21 -16 26 -16 5 0 16 -7 26
-16 14 -13 16 -21 7 -47 -24 -70 -187 -292 -232 -317 -14 -7 -26 -17 -26 -21
0 -5 -21 -18 -46 -29 -39 -18 -44 -23 -33 -36 10 -12 10 -20 1 -35 -11 -17 -9
-19 23 -19 28 0 37 -5 44 -23 6 -15 23 -27 50 -36 23 -6 41 -18 41 -26 0 -20
21 -30 30 -15 6 10 11 7 21 -9 16 -26 77 -55 169 -83 37 -11 51 -23 82 -68 21
-30 45 -71 54 -90 l16 -35 20 40 c11 22 26 47 33 55 8 8 17 27 20 42 6 22 16
30 49 38 58 15 94 30 146 60 25 15 49 27 53 28 21 3 129 76 151 102 13 17 32
30 41 30 49 0 1 90 -61 116 -21 9 -34 21 -34 32 0 10 -20 34 -44 55 -100 83
-220 327 -161 327 9 0 18 7 21 15 4 8 12 15 19 15 13 0 85 -87 85 -102 0 -5 4
-6 10 -3 5 3 24 -1 41 -10 25 -13 47 -15 114 -10 98 8 164 -11 204 -59 24 -27
28 -28 83 -22 35 3 58 2 58 -4 0 -6 -13 -10 -28 -10 -29 0 -90 -38 -126 -79
-26 -28 -46 -87 -46 -132 0 -74 49 -141 67 -91 4 9 32 43 62 76 42 44 76 68
138 97 44 21 85 44 89 50 4 7 8 42 9 78 1 74 24 167 48 205 14 21 21 23 45 16
40 -11 100 2 157 33 26 15 54 27 62 27 8 0 11 5 8 10 -3 5 -1 10 4 10 19 0 13
-90 -5 -97 -14 -5 -13 -9 7 -24 29 -22 48 -23 72 -5 28 21 57 110 57 171 0 53
-1 55 -27 55 -22 0 -121 -56 -143 -80 -12 -14 -102 -50 -139 -56 -30 -5 -41
-3 -41 6 0 16 108 117 133 126 9 3 17 10 17 15 0 6 12 10 28 9 51 -4 62 0 67
23 6 23 67 60 142 87 40 15 82 62 90 100 6 30 23 42 23 16 0 -8 7 -16 15 -20
23 -8 21 -104 -2 -113 -9 -4 -19 -1 -21 5 -6 19 -30 14 -37 -8 -8 -27 1 -40
29 -40 35 0 74 36 82 76 3 19 10 37 15 40 14 8 10 34 -5 34 -8 0 -21 13 -29
28 -13 27 -12 30 20 67 19 22 31 32 28 22 -4 -9 -3 -17 3 -17 11 0 26 73 22
110 -1 13 -13 35 -26 47 -30 28 -30 37 1 71 14 15 25 33 25 40 0 7 7 20 15 28
8 9 15 20 15 26 0 5 -7 8 -15 4 -21 -8 -19 12 6 73 21 49 21 52 4 71 -10 11
-24 20 -32 20 -7 0 -19 12 -25 26 -10 22 -10 28 6 39 20 15 15 47 -12 78 -23
26 -48 21 -89 -19 -21 -19 -32 -34 -24 -32 7 2 15 -4 16 -13 2 -11 -3 -15 -19
-12 -28 6 -50 -20 -43 -49 6 -22 67 -68 67 -51 1 4 10 -3 21 -16 12 -15 16
-28 10 -34 -17 -17 -69 4 -96 39 -20 27 -33 34 -59 34 -38 0 -46 -12 -46 -72
0 -31 4 -41 19 -45 19 -5 34 -36 23 -47 -12 -13 -33 -5 -30 12 2 13 -3 16 -22
14 -40 -4 -73 -34 -101 -91 -30 -61 -42 -71 -85 -71 -97 0 -139 -147 -63 -222
22 -23 29 -39 29 -69 0 -44 -29 -119 -46 -119 -16 0 -74 61 -68 72 3 4 -6 12
-19 17 -14 6 -28 15 -32 20 -3 6 -19 11 -35 11 -21 0 -29 -6 -34 -25 -4 -16
-13 -25 -26 -25 -24 0 -27 -6 -38 -73 -7 -47 -6 -62 12 -99 26 -53 74 -81 129
-74 l37 4 -30 -38 c-16 -21 -30 -41 -30 -44 0 -5 -35 -64 -57 -95 -2 -2 -20 3
-40 12 -22 9 -76 17 -125 20 -80 3 -91 6 -125 34 -30 24 -40 41 -48 79 -18 87
-93 177 -175 210 -22 9 -40 19 -41 23 0 3 -2 18 -4 32 -2 14 0 30 3 35 4 5 45
24 92 43 178 71 249 113 380 223 93 79 120 106 193 195 32 39 65 74 73 77 8 3
13 10 9 15 -3 6 11 36 31 67 41 63 149 297 165 357 9 33 12 36 30 26 12 -6 23
-8 26 -5 8 8 -7 26 -23 26 -18 0 -18 0 16 105 17 50 37 131 46 180 8 50 24
122 34 160 22 81 34 159 35 228 l0 49 28 -34 c16 -18 48 -62 72 -98z m-2039
54 c11 -52 37 -109 54 -119 13 -8 13 -45 0 -45 -5 0 -7 7 -3 16 4 11 1 15 -12
12 -14 -2 -21 7 -29 37 -6 22 -16 49 -23 60 -6 11 -14 38 -18 59 -12 59 17 41
31 -20z m172 15 c-3 -8 -7 -3 -11 10 -4 17 -3 21 5 13 5 -5 8 -16 6 -23z m520
15 c12 -8 20 -19 17 -24 -6 -10 -55 1 -55 13 0 23 1 27 8 27 4 0 18 -7 30 -16z
m72 -29 c-7 -8 -19 -15 -26 -15 -8 0 -14 7 -14 15 0 10 10 15 26 15 22 0 25
-2 14 -15z m-100 -26 c0 -5 -4 -7 -10 -4 -6 3 -7 -1 -4 -9 3 -9 2 -16 -4 -16
-12 0 -23 26 -15 34 10 10 33 7 33 -5z m64 -24 c-5 -12 -10 -13 -20 -4 -19 15
-18 19 6 19 13 0 18 -5 14 -15z m-500 -44 c-6 -7 -34 28 -34 42 0 6 9 0 20
-13 11 -13 17 -26 14 -29z m481 19 c3 -5 -1 -10 -9 -10 -9 0 -16 5 -16 10 0 6
4 10 9 10 6 0 13 -4 16 -10z m-528 -42 c-3 -8 -6 -5 -6 6 -1 11 2 17 5 13 3
-3 4 -12 1 -19z m493 7 c0 -9 -6 -12 -15 -9 -8 4 -12 10 -9 15 8 14 24 10 24
-6z m-367 -38 c4 3 7 1 7 -5 0 -7 -9 -12 -20 -12 -14 0 -20 7 -20 23 1 20 2
21 14 5 7 -10 16 -15 19 -11z m-1200 2 c12 -6 33 -22 47 -34 25 -23 101 -65
300 -167 180 -92 217 -116 255 -168 20 -27 35 -55 34 -62 -1 -7 1 -21 6 -31 5
-12 -2 -55 -19 -116 -27 -95 -27 -99 -12 -153 25 -84 88 -135 214 -170 51 -14
82 -28 84 -38 2 -8 1 -50 -2 -93 l-5 -77 -35 20 c-19 11 -46 25 -60 31 -162
70 -278 170 -317 275 -36 94 -48 162 -48 269 0 84 -3 104 -19 123 -11 12 -23
22 -28 22 -10 0 -90 53 -177 117 -84 62 -251 226 -251 247 0 19 4 20 33 5z
m1113 -5 c10 -8 14 -13 8 -10 -6 3 -16 -6 -22 -19 -11 -23 -21 -29 -39 -22
-14 4 -11 29 5 48 20 23 23 23 48 3z m1531 -24 c13 0 13 -2 -1 -15 -8 -8 -18
-15 -23 -15 -5 0 -50 -39 -100 -87 -50 -49 -101 -95 -114 -103 -12 -8 -45 -32
-73 -52 -28 -21 -54 -38 -59 -38 -4 0 -22 -10 -40 -22 -18 -13 -34 -24 -36
-25 -1 -1 -5 -41 -7 -90 -1 -48 -6 -100 -9 -114 -3 -18 0 -29 10 -33 22 -8 18
-24 -7 -28 -15 -2 -22 -9 -20 -20 1 -10 -4 -28 -12 -41 -9 -12 -18 -40 -21
-60 -11 -69 -52 -117 -174 -209 -36 -27 -212 -118 -228 -118 -5 0 -10 35 -11
78 -4 96 6 112 78 123 69 11 138 48 175 94 28 34 30 42 29 118 0 45 -6 112
-14 148 -12 60 -12 71 4 113 25 64 96 131 186 176 41 20 84 41 95 46 11 6 35
18 53 27 34 17 189 100 227 121 10 6 26 17 33 24 8 7 21 11 29 8 8 -3 21 -6
30 -6z m-1672 -10 c4 -6 11 -8 16 -5 5 3 6 -1 3 -9 -4 -11 0 -16 10 -16 9 0
16 -4 16 -10 0 -5 8 -10 18 -10 24 0 42 -19 35 -36 -4 -10 -18 -4 -53 24 -49
38 -78 72 -61 72 6 0 13 -5 16 -10z m512 -10 c-3 -13 0 -20 9 -20 8 0 14 -5
14 -10 0 -7 -6 -7 -19 0 -11 5 -18 18 -16 27 5 24 4 23 11 23 4 0 4 -9 1 -20z
m-37 -26 c0 -21 -4 -34 -11 -32 -6 2 -10 7 -10 11 1 4 1 18 1 32 0 14 5 25 10
25 6 0 10 -16 10 -36z m-290 16 c0 -5 -5 -10 -11 -10 -5 0 -7 5 -4 10 3 6 8
10 11 10 2 0 4 -4 4 -10z m2140 -17 c0 -5 -12 -26 -25 -48 -18 -29 -25 -35
-25 -20 0 11 -9 26 -20 33 -30 18 -24 30 18 35 20 2 40 4 45 5 4 1 7 -1 7 -5z
m-2173 -14 c-14 -8 -22 -8 -30 0 -8 8 -3 11 19 11 25 -1 27 -2 11 -11z m82 -4
c10 3 22 1 26 -5 3 -5 2 -10 -4 -10 -5 0 -17 -7 -25 -16 -15 -14 -19 -14 -49
6 -17 12 -24 19 -14 16 11 -4 17 0 17 11 0 12 3 13 15 3 8 -6 23 -9 34 -5z
m326 -5 c-3 -5 -11 -10 -16 -10 -6 0 -7 5 -4 10 3 6 11 10 16 10 6 0 7 -4 4
-10z m-41 -21 c-6 -11 -24 -2 -24 11 0 5 7 7 15 4 8 -4 12 -10 9 -15z m-236
-9 c-7 -11 -19 -20 -27 -20 -11 0 -10 5 4 20 10 11 22 20 27 20 4 0 3 -9 -4
-20z m82 10 c0 -5 9 -10 20 -10 11 0 20 -5 20 -11 0 -7 -9 -9 -22 -5 -13 3
-35 6 -50 6 -16 0 -28 5 -28 11 0 5 4 8 8 5 4 -2 14 -1 22 5 20 12 30 11 30
-1z m-230 -15 c7 -9 11 -18 8 -20 -9 -10 -38 7 -38 21 0 18 14 18 30 -1z m340
5 c18 -11 10 -19 -24 -26 -29 -5 -32 0 -13 21 14 17 18 17 37 5z m-1395 -80
c19 -16 128 -93 164 -115 24 -15 72 -45 108 -69 18 -12 33 -27 33 -35 0 -11
-4 -11 -18 2 -10 10 -26 17 -35 17 -9 0 -19 5 -22 10 -3 6 -16 10 -28 10 -12
0 -46 15 -76 33 -29 17 -63 37 -75 44 -34 19 -126 126 -126 147 0 9 42 -16 75
-44z m2585 33 c0 -9 -52 -71 -97 -116 -15 -16 -53 -40 -83 -54 -30 -14 -64
-33 -75 -44 -19 -17 -105 -43 -114 -33 -5 5 -8 2 53 42 27 18 55 32 62 32 7 0
19 8 26 19 7 10 27 25 43 34 17 8 39 24 50 34 19 17 47 38 104 75 30 20 31 21
31 11z m-1480 -109 c0 -11 -5 -14 -16 -10 -9 3 -18 6 -20 6 -3 0 -2 5 1 10 10
16 35 12 35 -6z m160 -6 c1 -18 31 -53 60 -68 13 -7 46 -15 74 -19 41 -5 52
-10 54 -27 2 -11 -6 -28 -18 -39 -11 -10 -20 -24 -20 -31 0 -18 40 -54 61 -54
11 0 16 -6 13 -18 -3 -9 5 -28 18 -41 30 -33 31 -51 4 -81 -13 -14 -30 -40
-39 -57 -14 -31 -14 -35 9 -81 13 -27 48 -71 77 -98 l52 -49 -349 0 c-271 0
-350 3 -353 13 -3 7 3 12 14 12 20 0 43 23 64 62 6 13 17 26 23 30 7 5 4 8 -7
8 -10 0 -16 4 -13 9 3 5 -3 20 -14 34 -17 21 -18 28 -7 51 7 14 15 26 18 26 3
0 20 -13 37 -28 28 -26 30 -30 17 -48 -17 -26 -5 -47 26 -42 29 4 28 31 -2 90
-23 45 -23 48 -4 48 8 0 15 4 15 10 0 5 15 16 33 23 81 35 110 105 62 152 -29
30 -49 31 -82 5 -36 -28 -83 -27 -83 1 0 17 5 20 25 17 28 -6 51 14 39 34 -5
8 -1 8 11 -2 14 -11 19 -12 22 -2 3 6 14 12 24 12 11 0 18 4 15 9 -3 5 1 22 9
37 9 18 13 41 9 62 -5 25 -3 32 9 32 9 0 19 -5 22 -11 5 -6 13 -3 22 10 15 23
53 29 53 9z m-205 -58 c3 -5 -1 -10 -9 -10 -9 0 -16 5 -16 10 0 6 4 10 9 10 6
0 13 -4 16 -10z m75 -16 c0 -34 -66 -76 -82 -52 -13 22 -9 29 11 17 24 -16 51
-5 51 21 0 11 5 20 10 20 6 0 10 -3 10 -6z m-1004 -65 c35 -16 65 -33 69 -39
3 -5 15 -10 25 -10 30 0 90 -40 90 -60 0 -18 -4 -17 -57 7 -32 14 -60 28 -63
32 -3 5 -32 9 -65 10 -32 1 -62 6 -66 12 -3 6 -10 10 -15 8 -11 -2 -34 40 -34
65 0 23 27 17 116 -25z m819 31 c3 -6 -4 -10 -17 -10 -26 -1 -68 -32 -68 -51
0 -20 -10 -4 -16 24 -3 18 1 29 13 36 23 13 80 14 88 1z m1553 -26 c-4 -22
-80 -58 -173 -84 -121 -34 -125 -35 -125 -16 0 9 5 16 10 16 6 0 12 0 15 0 5
0 76 37 159 82 17 9 39 17 48 18 9 0 20 5 23 10 9 15 47 -8 43 -26z m-935 -43
c16 -16 0 -26 -18 -11 -9 7 -19 9 -23 5 -4 -4 -1 -10 6 -12 17 -6 15 -23 -3
-23 -8 0 -15 5 -15 10 0 6 -8 10 -17 11 -16 0 -15 2 2 10 16 7 13 8 -13 4 -28
-4 -31 -3 -20 10 14 17 83 14 101 -4z m-2472 -37 c23 -21 24 -32 4 -71 -28
-57 -97 -82 -126 -47 -20 24 -15 101 8 126 22 24 83 20 114 -8z m1789 -24 c13
-9 13 -11 1 -19 -14 -9 -51 6 -51 21 0 11 32 10 50 -2z m-719 -46 c31 -5 36
-9 31 -28 -5 -17 -3 -19 9 -9 9 7 20 8 28 3 8 -4 20 -6 26 -4 15 6 78 -28 77
-41 0 -6 4 -20 9 -32 6 -18 5 -23 -6 -23 -8 0 -15 7 -15 16 0 10 -6 14 -15 10
-8 -3 -18 1 -22 8 -15 24 -64 50 -72 38 -4 -6 -20 -9 -36 -7 -17 3 -44 7 -62
10 -32 6 -46 24 -37 50 7 16 28 18 85 9z m2279 -5 c0 -42 -72 -75 -177 -80
-54 -3 -69 8 -37 26 9 6 25 18 35 27 10 9 39 19 66 23 26 4 53 8 58 10 22 8
55 4 55 -6z m-3548 -34 c3 -14 1 -28 -3 -31 -5 -3 -9 9 -9 25 0 38 6 40 12 6z
m42 -29 c7 -30 59 -80 103 -102 50 -23 110 -12 155 29 19 18 37 39 40 47 3 8
8 12 11 9 8 -7 -13 -130 -24 -144 -4 -6 -8 -20 -8 -30 -2 -109 -3 -114 -18
-108 -15 6 -62 -41 -63 -63 0 -5 -7 -19 -16 -30 -15 -18 -15 -18 -9 11 4 17
14 38 22 48 9 9 13 20 10 24 -4 3 -7 1 -7 -5 0 -7 -4 -12 -10 -12 -5 0 -10 12
-10 26 0 39 -17 62 -73 98 -29 19 -63 45 -76 59 -13 15 -40 28 -62 32 -47 8
-49 20 -6 56 24 21 29 31 19 37 -13 9 -7 42 8 42 4 0 11 -11 14 -24z m4391
-44 c28 -11 68 -31 89 -46 22 -15 46 -24 53 -22 7 3 32 -10 57 -28 24 -19 53
-39 65 -45 31 -17 28 -51 -6 -51 -14 0 -34 6 -42 14 -42 35 -159 48 -197 21
-12 -8 -27 -28 -34 -45 -7 -17 -15 -29 -17 -26 -8 7 -33 228 -27 237 7 11 1
12 59 -9z m-3023 -77 c64 -33 84 -50 91 -76 7 -28 -11 -23 -25 6 -6 14 -17 25
-24 25 -6 0 -14 6 -17 14 -3 7 -15 16 -26 19 -24 6 -29 -8 -6 -17 31 -11 15
-25 -17 -15 -18 5 -49 12 -68 15 -35 6 -73 40 -63 57 10 17 100 0 155 -28z
m2058 13 c0 -6 -7 -20 -17 -30 -22 -24 -133 -27 -133 -2 0 11 -6 14 -22 9 -18
-6 -20 -5 -11 5 23 25 183 41 183 18z m558 -57 c10 -27 7 -41 -8 -41 -3 0 -6
8 -6 18 -1 9 -4 25 -9 35 -4 10 -3 17 3 17 6 0 15 -13 20 -29z m-3990 3 c19
-5 14 -41 -9 -62 -14 -14 -25 -45 -34 -98 -24 -135 -19 -156 42 -187 40 -21
66 -21 104 -1 17 8 48 18 70 22 22 4 39 11 39 16 -1 5 5 13 14 18 12 7 15 18
10 47 -5 30 -3 39 11 44 12 5 14 13 9 29 -6 20 -5 21 9 7 11 -12 16 -40 17
-110 1 -87 5 -144 10 -144 4 0 7 -30 19 -145 10 -96 29 -174 82 -335 31 -93
34 -116 8 -67 -22 45 -46 63 -58 45 -3 -5 -25 -17 -47 -26 -23 -9 -57 -25 -75
-36 -19 -12 -42 -21 -51 -21 -10 0 -18 -4 -18 -10 0 -5 -7 -10 -15 -10 -8 0
-15 8 -15 18 0 23 165 142 196 142 13 0 26 5 30 11 7 12 -26 89 -39 89 -14 0
-59 -26 -143 -83 l-81 -55 -18 55 c-18 52 -31 71 -42 60 -5 -6 81 -267 98
-297 5 -8 27 -55 50 -105 22 -49 45 -95 50 -101 7 -9 22 -5 56 13 25 13 52 22
60 19 8 -3 12 -2 9 3 -7 10 17 21 44 21 10 0 22 9 25 20 3 11 11 20 16 20 6 0
21 12 36 26 14 14 26 24 28 22 16 -21 55 -99 55 -111 0 -10 3 -17 8 -17 4 0
15 -14 24 -30 12 -22 14 -30 4 -30 -18 0 -113 -47 -121 -61 -4 -6 -2 -15 5
-19 9 -5 9 -13 1 -27 -5 -11 -7 -24 -3 -28 4 -5 1 -5 -5 -1 -7 4 -13 14 -13
22 0 12 -7 14 -32 8 -18 -4 -39 -7 -45 -7 -7 0 -13 -4 -13 -9 0 -4 -11 -8 -25
-8 -22 0 -24 -3 -16 -17 26 -45 47 -64 64 -57 12 4 14 10 8 18 -8 9 -1 11 24
8 41 -5 42 -9 15 -64 -11 -22 -17 -46 -13 -51 17 -27 47 -56 54 -52 4 3 12 -9
18 -25 11 -32 38 -50 50 -33 3 5 29 22 56 37 28 15 77 51 110 81 l60 54 -20
38 c-11 21 -39 63 -62 93 -23 30 -40 56 -38 59 3 2 6 2 8 0 1 -2 30 -39 62
-83 33 -43 67 -88 75 -101 8 -12 31 -38 50 -57 19 -19 40 -42 46 -50 6 -8 29
-29 50 -47 28 -24 33 -32 18 -29 -11 3 -21 0 -21 -6 0 -11 -22 -61 -48 -107
-8 -14 -35 -40 -60 -58 -33 -24 -44 -36 -36 -44 19 -19 13 -55 -10 -62 -16 -5
-28 0 -48 21 -14 16 -26 33 -26 39 0 5 -6 11 -12 11 -7 1 -18 2 -25 3 -6 0 -9
4 -5 7 3 3 -4 15 -15 26 -27 27 -18 31 25 13 79 -33 155 -9 204 64 36 54 31
98 -21 169 -47 63 -58 71 -92 64 -22 -4 -204 -172 -204 -188 0 -6 15 -25 34
-43 19 -18 32 -39 29 -47 -3 -8 -25 10 -59 51 -30 35 -62 70 -72 77 -27 20
-119 139 -199 258 -66 98 -102 167 -103 194 0 11 -6 27 -13 35 -17 20 -87 176
-87 193 0 8 -8 25 -17 38 -10 14 -17 26 -15 28 1 1 -4 15 -11 30 -30 59 -86
284 -101 402 -16 130 -23 311 -18 488 l2 102 28 -6 c15 -3 33 -7 40 -10z m138
-120 c12 -22 12 -29 2 -36 -10 -8 -10 -11 0 -15 13 -5 17 -43 4 -43 -4 0 -15
9 -25 20 -14 17 -21 19 -38 10 -11 -6 -28 -9 -37 -7 -12 3 -9 6 11 11 37 11
34 26 -6 26 -21 0 -41 8 -51 19 -16 18 -15 20 26 48 42 29 44 29 71 12 16 -9
35 -29 43 -45z m4339 56 c3 -5 0 -10 -8 -10 -17 0 -47 -40 -63 -85 -9 -23 -8
-36 3 -57 15 -31 22 -33 70 -19 30 9 37 5 107 -55 41 -35 80 -64 85 -64 5 0
19 12 30 28 l20 27 1 -60 c0 -109 -32 -351 -49 -368 -6 -6 -11 -28 -11 -49 0
-37 -36 -167 -49 -178 -6 -5 -30 -82 -34 -110 -1 -8 -15 -41 -30 -72 -15 -31
-27 -61 -27 -66 0 -5 -9 -17 -19 -26 -11 -10 -23 -32 -27 -50 -9 -43 -84 -176
-147 -263 -66 -92 -237 -293 -248 -293 -5 0 -9 -4 -9 -9 0 -16 -121 -131 -131
-125 -5 3 -9 -1 -9 -9 0 -8 -10 -21 -22 -29 -13 -9 -48 -38 -78 -67 -30 -28
-60 -51 -67 -51 -7 0 -13 -4 -13 -9 0 -5 -15 -14 -32 -21 -18 -8 -42 -24 -54
-38 -20 -24 -35 -34 -120 -77 -21 -11 -45 -26 -52 -32 -7 -7 -20 -13 -28 -13
-8 0 -14 -3 -14 -8 0 -12 -100 -54 -115 -48 -7 2 -16 -1 -18 -9 -6 -14 -141
-85 -162 -85 -7 0 -59 -19 -116 -42 -65 -26 -118 -42 -141 -41 -23 1 -36 -3
-32 -9 4 -6 -1 -8 -14 -4 -11 4 -37 0 -57 -9 -42 -17 -57 -19 -35 -5 13 8 12
10 -2 10 -34 0 -18 17 34 37 51 19 75 43 44 43 -9 0 -16 6 -16 13 0 6 -5 4
-11 -6 -5 -9 -19 -17 -29 -17 -16 0 -20 7 -20 34 0 26 4 33 17 32 11 -1 19 9
23 29 8 38 6 162 -2 171 -9 9 -76 -15 -81 -29 -3 -9 -8 -8 -20 2 -14 11 -22
11 -47 1 -16 -7 -30 -15 -30 -17 0 -8 50 -176 62 -205 5 -14 7 -36 3 -47 -14
-46 -69 26 -127 167 -30 72 -47 93 -68 82 -22 -12 -32 -40 -35 -95 -1 -22 -11
-60 -22 -85 -11 -25 -24 -56 -28 -70 -4 -14 -16 -35 -27 -46 -25 -28 -12 -36
46 -28 46 7 58 17 31 27 -12 5 -12 12 -1 44 11 32 18 39 44 41 29 3 32 0 43
-40 7 -24 16 -47 20 -52 4 -5 39 -1 79 8 89 20 86 20 94 0 5 -13 2 -15 -14
-11 -11 3 -18 1 -15 -3 9 -15 -12 -21 -96 -25 -45 -3 -88 -10 -95 -16 -8 -6
-68 -10 -166 -8 -224 3 -289 12 -575 80 -125 29 -167 44 -193 65 -8 7 -50 24
-93 38 -108 35 -125 43 -307 138 -25 13 -46 30 -46 38 -1 8 -2 21 -3 28 0 6
-6 12 -12 12 -8 0 -9 -4 0 -13 14 -17 4 -28 -17 -20 -24 9 -99 60 -120 82 -9
10 -30 25 -47 34 -16 8 -40 23 -52 34 -12 10 -36 29 -52 42 -17 13 -31 28 -31
33 0 17 45 3 54 -17 9 -21 107 -65 143 -65 11 0 31 8 44 19 l24 18 1 -28 c1
-16 -3 -26 -7 -23 -5 3 -9 -11 -9 -30 0 -20 2 -36 4 -36 2 0 11 -3 19 -6 11
-4 17 3 22 24 3 17 15 40 26 53 20 23 26 44 9 34 -5 -3 -10 -2 -10 2 0 13 29
50 30 38 0 -5 5 -3 10 5 7 11 10 7 11 -20 1 -19 1 -41 0 -48 -1 -8 2 -19 8
-26 10 -12 19 -64 20 -118 1 -20 9 -32 32 -44 18 -9 43 -28 57 -42 l25 -27 -7
35 -6 35 42 -42 c55 -54 161 -101 155 -69 -1 6 6 10 15 8 9 -1 19 2 23 8 19
31 85 -10 85 -54 0 -23 30 -42 55 -36 70 18 80 17 110 -16 33 -34 92 -51 144
-39 17 4 49 27 76 56 26 28 48 49 50 47 2 -2 6 -23 9 -47 8 -75 64 -105 190
-105 44 1 61 5 68 17 5 10 15 17 21 17 7 0 13 8 14 18 0 9 6 46 12 81 9 45 9
72 1 95 -24 70 -93 113 -165 102 -45 -7 -125 -61 -126 -84 0 -14 -2 -14 -6 -2
-3 8 -9 17 -12 20 -4 3 -11 18 -16 34 -15 45 -55 68 -113 68 -56 0 -87 -18
-118 -67 -11 -16 -27 -41 -36 -55 -9 -14 -17 -34 -18 -45 -1 -17 -3 -17 -11 5
-9 22 -8 115 3 190 2 20 -2 26 -19 28 -13 2 -43 14 -68 28 -25 13 -47 24 -48
24 -2 0 -4 -11 -5 -24 -1 -16 7 -32 25 -46 23 -18 26 -28 25 -71 -1 -59 -3
-62 -26 -53 -15 6 -17 16 -12 60 4 43 2 54 -10 54 -10 0 -14 12 -14 38 0 32
-5 41 -25 50 -38 17 -126 15 -153 -4 -27 -19 -41 -12 -22 11 7 8 25 15 41 15
36 0 46 16 19 30 -47 25 -134 -40 -155 -115 -8 -28 -9 -25 -16 30 -5 33 -6 77
-3 97 7 49 -3 78 -27 78 -13 0 -18 4 -13 12 4 7 3 8 -5 4 -6 -4 -18 -2 -27 4
-12 10 -23 4 -63 -37 -27 -27 -63 -55 -80 -63 -17 -7 -31 -16 -31 -21 0 -12
-36 -11 -80 1 -40 11 -90 51 -90 72 0 8 19 32 41 53 23 22 56 70 74 108 l33
67 40 -32 c22 -18 68 -53 101 -77 34 -24 61 -47 61 -52 0 -5 9 -9 21 -9 11 0
34 -9 50 -21 27 -19 206 -101 259 -119 14 -5 57 -22 96 -38 39 -17 97 -36 130
-43 32 -7 64 -16 69 -20 11 -8 112 -31 215 -50 96 -17 393 -23 488 -10 136 19
210 34 252 51 14 5 50 16 80 24 30 8 70 19 88 25 19 6 30 6 27 0 -4 -5 5 -13
18 -18 27 -11 76 -84 102 -154 30 -79 -10 -127 -63 -77 -12 12 -22 27 -22 34
0 8 -16 42 -35 76 -19 34 -35 72 -35 84 0 32 -9 38 -34 21 -11 -8 -28 -15 -38
-15 -22 0 -22 -10 -3 -47 23 -44 55 -121 55 -132 0 -6 19 -29 41 -51 57 -56
101 -56 159 -1 40 38 41 41 38 94 -1 30 -6 53 -10 51 -8 -5 -44 87 -40 105 2
7 -1 10 -7 6 -6 -3 -11 2 -11 13 0 28 -6 30 -50 19 -22 -6 -43 -8 -46 -4 -11
11 1 18 38 24 18 3 35 9 38 13 3 5 44 27 90 50 85 40 101 49 141 73 17 9 23
10 26 0 3 -7 9 -13 15 -13 6 0 5 6 -2 15 -15 18 -17 17 40 45 25 12 39 16 33
9 -16 -16 -17 -46 -3 -51 6 -2 12 -13 13 -25 0 -12 5 -19 9 -17 7 5 19 -17 63
-119 9 -22 25 -47 36 -58 19 -19 20 -19 49 3 17 12 30 29 30 37 0 9 -25 59
-56 111 -35 58 -57 105 -56 122 0 21 -4 28 -16 26 -35 -6 -14 22 58 75 41 31
81 61 88 67 7 7 12 7 12 1 0 -6 -7 -14 -16 -19 -23 -13 -21 -17 47 -88 20 -20
20 -20 -1 -39 -21 -19 -22 -19 -54 20 -19 22 -31 45 -29 52 7 19 -5 16 -34 -7
-14 -11 -32 -20 -39 -20 -31 0 -17 -21 82 -132 13 -14 24 -29 24 -33 0 -3 9
-15 20 -27 11 -12 20 -32 20 -44 0 -35 25 -35 67 0 l38 34 -48 50 c-26 28 -47
55 -47 60 0 5 11 14 24 20 21 9 26 7 50 -30 14 -22 26 -43 26 -48 0 -24 66
-21 72 4 2 6 30 36 63 66 33 30 66 62 73 72 11 16 11 18 -5 18 -11 0 -24 -5
-31 -12 -15 -15 -29 -2 -36 33 -2 15 -12 41 -21 58 -23 46 -15 55 25 27 19
-14 63 -30 98 -37 62 -13 63 -13 89 13 25 26 26 27 10 60 -15 31 -15 33 5 44
l21 11 -22 15 c-19 13 -20 17 -6 28 19 16 45 -2 45 -31 0 -11 6 -19 14 -19 15
0 76 67 76 84 0 5 -3 7 -6 3 -7 -7 -27 11 -67 62 -16 20 -51 60 -79 89 -27 28
-47 52 -43 52 8 0 72 -48 97 -72 10 -10 22 -18 27 -18 5 0 32 -18 60 -40 l51
-40 20 32 c25 42 25 46 -2 58 -13 5 -38 22 -56 38 -31 29 -32 30 -10 36 13 3
48 6 78 7 44 0 116 16 88 18 -4 1 4 17 17 37 14 20 25 43 25 50 0 7 6 17 13
21 6 4 17 23 24 41 10 29 10 33 -3 28 -21 -8 -70 19 -115 64 -22 21 -39 41
-39 43 0 7 64 -11 123 -34 26 -11 52 -19 57 -19 10 0 33 40 45 80 7 24 7 24
-12 8 -25 -23 -35 -22 -83 2 -46 24 -56 36 -40 55 9 11 7 16 -10 25 -26 14
-38 6 -21 -13 9 -12 5 -14 -26 -11 -21 1 -43 -2 -51 -8 -9 -8 -20 -8 -38 1
-24 11 -25 13 -11 34 15 22 27 24 117 14 39 -4 134 -32 164 -48 23 -13 34 -3
38 34 3 25 -2 30 -34 41 -35 13 -73 42 -73 57 0 4 -3 11 -7 15 -5 4 -8 -4 -8
-17 -1 -23 -1 -23 -15 -4 -20 25 -14 40 16 42 27 2 94 -14 121 -28 25 -13 25
-12 36 20 l10 29 -68 17 c-68 17 -95 39 -68 56 15 10 50 1 59 -14 4 -5 23 -7
43 -4 29 5 36 3 37 -11 1 -9 5 -3 9 13 4 17 5 42 3 56 -3 15 2 30 11 38 9 8
16 22 16 31 0 21 -24 28 -147 45 -29 4 -55 11 -58 16 -3 4 -11 6 -18 3 -7 -2
-28 7 -47 21 -19 14 -42 25 -52 25 -21 0 -22 15 -9 86 5 27 11 88 12 136 2 48
7 85 11 82 4 -3 8 12 8 32 0 63 71 133 95 94z m-3761 -53 c-30 -35 -29 -30 1
20 11 18 22 28 23 23 2 -6 -9 -25 -24 -43z m2476 33 c0 -5 -5 -10 -11 -10 -5
0 -7 5 -4 10 3 6 8 10 11 10 2 0 4 -4 4 -10z m142 -12 c9 -16 -7 -45 -32 -58
-15 -8 -26 -7 -42 4 -14 10 -27 12 -38 6 -14 -7 -19 -5 -23 10 -5 20 8 39 15
21 4 -12 58 -2 58 10 0 5 -9 9 -21 9 -12 0 -17 4 -13 11 8 14 85 3 96 -13z
m-1894 -7 c2 -6 16 -11 32 -11 15 0 33 -7 40 -15 10 -12 8 -13 -10 -10 -12 2
-29 7 -38 10 -10 2 -47 6 -83 7 -54 1 -69 5 -79 21 -12 19 -10 20 61 15 41 -3
75 -11 77 -17z m2590 -24 c2 -15 -1 -27 -7 -27 -14 0 -33 38 -26 51 11 17 30
4 33 -24z m-884 7 c9 -23 8 -24 -14 -24 -11 0 -20 2 -20 4 0 12 13 36 20 36 4
0 11 -7 14 -16z m931 -14 c-2 -31 -15 -37 -15 -7 0 15 4 27 8 27 5 0 8 -9 7
-20z m515 10 c0 -6 -8 -14 -17 -17 -10 -4 -23 -14 -30 -22 -10 -14 -13 -14
-32 3 -26 23 -26 33 -3 39 33 9 82 7 82 -3z m-3145 -34 c11 -2 19 -6 18 -9 -2
-4 -3 -12 -3 -17 0 -7 -6 -7 -20 0 -11 6 -31 8 -44 4 -18 -4 -27 -1 -36 15
-10 20 -9 21 27 15 21 -3 47 -7 58 -8z m3282 -33 c-3 -10 -5 -2 -5 17 0 19 2
27 5 18 2 -10 2 -26 0 -35z m-257 12 c0 -16 -6 -25 -15 -25 -18 0 -20 21 -3
38 17 17 18 16 18 -13z m155 -52 c-6 -24 -6 -24 -35 -6 -40 25 -40 29 0 55
l35 24 3 -24 c2 -14 1 -35 -3 -49z m70 15 c-1 -69 -11 -83 -56 -73 -27 6 -30
9 -18 19 13 9 28 59 31 104 1 7 11 12 22 10 19 -3 21 -10 21 -60z m-1560 17
c-27 -13 -59 -24 -70 -24 -12 0 -15 3 -6 6 7 3 21 13 30 22 9 9 34 18 56 19
l40 2 -50 -25z m125 10 c0 -9 -6 -12 -15 -9 -8 4 -15 10 -15 15 0 5 7 9 15 9
8 0 15 -7 15 -15z m-1722 -14 c15 -9 33 -75 23 -88 -3 -4 -18 -14 -32 -22 -21
-10 -31 -11 -49 -1 l-22 12 23 12 c13 6 25 22 27 34 2 12 8 22 13 22 5 0 9 5
9 11 0 5 -4 7 -10 4 -5 -3 -10 1 -10 9 0 18 8 20 28 7z m1135 -41 c8 -39 0
-60 -24 -60 -14 0 -19 8 -20 28 -1 15 0 32 1 37 2 6 3 18 4 27 1 28 33 3 39
-32z m1330 30 c-3 -11 -7 -20 -9 -20 -2 0 -4 9 -4 20 0 11 4 20 9 20 5 0 7 -9
4 -20z m-3968 -40 c33 0 47 5 58 21 l15 21 7 -21 c14 -46 -64 -109 -104 -84
-26 16 -42 59 -34 90 l8 28 3 -27 c3 -26 7 -28 47 -28z m2148 39 c-7 -7 -46
-11 -101 -10 -83 2 -118 -8 -91 -24 5 -4 8 -13 5 -21 -3 -9 1 -14 12 -14 9 -1
38 -3 64 -5 32 -3 50 0 58 10 15 18 37 20 42 4 2 -6 19 -14 38 -19 24 -5 -8
-8 -102 -9 l-138 -1 0 50 0 50 112 0 c83 0 109 -3 101 -11z m122 -39 c0 -48
-1 -50 -27 -50 -32 0 -31 0 -18 34 12 33 4 54 -23 59 -12 2 -2 5 23 6 l45 1 0
-50z m132 39 c-14 -8 -17 -18 -13 -42 3 -18 3 -26 0 -19 -3 6 -16 12 -29 12
-13 0 -27 4 -30 10 -4 6 4 9 17 7 18 -1 23 3 22 21 0 17 5 22 25 22 23 -1 24
-2 8 -11z m134 -29 c8 -43 -3 -59 -37 -52 -21 4 -24 9 -20 29 4 13 2 31 -3 41
-8 14 -4 17 22 17 29 0 33 -4 38 -35z m1380 5 c12 4 14 -3 11 -35 -5 -45 -17
-52 -26 -15 -4 14 -11 25 -16 25 -6 0 -10 9 -10 21 0 18 -4 20 -27 14 -27 -6
-27 -6 -8 9 18 13 22 13 41 -5 11 -11 27 -17 35 -14z m-2216 -49 c19 -15 18
-16 -10 -5 -16 5 -34 14 -40 19 -6 5 -17 5 -25 0 -8 -6 -22 -9 -30 -9 -9 0 -6
5 8 11 12 6 22 15 22 20 0 9 44 -12 75 -36z m1282 38 c-3 -3 -12 -4 -19 -1 -8
3 -5 6 6 6 11 1 17 -2 13 -5z m-56 -32 c-9 -16 -68 -37 -79 -27 -2 2 16 15 39
29 48 28 56 27 40 -2z m210 19 c-7 -5 -11 -13 -8 -18 14 -22 -19 -42 -75 -46
-45 -4 -55 -2 -51 9 4 10 -3 14 -22 14 -14 0 -24 4 -21 9 4 6 19 6 39 0 42
-11 90 -5 96 12 5 17 21 29 41 29 12 0 13 -2 1 -9z m699 -12 c0 -5 5 -7 11 -3
8 5 10 -1 5 -19 -4 -17 -1 -31 9 -41 18 -17 19 -46 4 -80 -17 -37 -39 -41 -40
-8 -1 15 -1 33 0 40 1 6 -3 12 -9 12 -14 0 -13 63 2 78 9 9 9 12 0 12 -7 0
-12 5 -12 10 0 6 7 10 15 10 8 0 15 -5 15 -11z m-1450 -28 c0 -5 -12 -6 -27
-3 -24 5 -25 6 -8 12 21 8 35 4 35 -9z m1313 -18 c3 -21 8 -51 12 -68 l7 -30
-20 24 c-11 14 -18 31 -15 38 3 7 -4 16 -16 21 -20 7 -20 9 -5 30 22 31 31 27
37 -15z m-2019 -6 c-9 -5 -21 -4 -30 3 -24 20 -16 29 16 17 24 -9 27 -13 14
-20z m-1134 -2 c0 -18 7 -28 26 -35 23 -9 32 -36 9 -28 -6 2 -9 6 -7 11 1 4
-8 7 -20 7 -12 0 -18 3 -15 7 4 3 1 16 -7 29 -14 21 -12 34 6 34 4 0 8 -11 8
-25z m420 -16 c-9 -15 -15 -18 -23 -10 -7 7 -5 16 8 32 22 24 32 10 15 -22z
m2799 -1 c0 -28 -2 -30 -9 -13 -12 28 -12 45 0 45 6 0 10 -15 9 -32z m151 -42
c-7 -7 -10 4 -9 30 1 39 1 39 10 9 5 -18 5 -33 -1 -39z m-3121 18 c26 -57 1
-104 -54 -104 -32 0 -61 -21 -52 -37 3 -4 1 -18 -4 -31 -6 -17 -14 -22 -28
-17 -29 9 -51 -5 -51 -34 0 -33 -14 -56 -29 -47 -12 8 -15 86 -3 86 4 0 13 14
20 32 9 24 15 29 23 21 9 -9 21 -5 48 15 47 35 54 44 74 102 19 53 36 57 56
14z m1034 17 c6 -6 20 -11 32 -12 11 0 -4 -9 -32 -20 -29 -11 -52 -26 -50 -32
1 -7 -4 -11 -10 -9 -7 1 -13 -2 -13 -8 0 -21 -18 -9 -22 14 -4 19 0 26 19 30
29 8 29 20 1 40 -21 15 -20 16 21 11 24 -2 49 -9 54 -14z m804 -5 c9 -8 11
-601 3 -609 -3 -3 -22 -8 -42 -12 l-38 -7 0 283 c0 156 3 300 6 320 6 33 9 37
35 35 16 -1 32 -6 36 -10z m-687 -13 c1 -17 2 -17 15 0 8 11 23 17 35 15 l23
-3 1 -312 1 -313 -23 0 c-13 0 -32 5 -44 11 -17 9 -19 19 -17 87 2 42 8 80 14
84 6 5 6 8 -2 8 -7 0 -13 12 -13 26 0 14 4 23 10 19 6 -3 10 -2 10 4 0 5 -4
11 -10 13 -12 4 -19 378 -7 378 4 0 7 -8 7 -17z m280 -298 l0 -315 -45 0 -45
0 0 315 0 315 45 0 45 0 0 -315z m210 0 l0 -315 -40 0 -40 0 0 315 0 315 40 0
40 0 0 -315z m380 303 c8 0 22 -7 30 -14 10 -8 21 -10 29 -4 8 4 24 4 35 0 12
-4 37 -12 56 -18 l35 -9 -40 -18 c-51 -22 -115 -15 -190 22 -52 25 -55 28 -38
41 10 7 29 11 43 7 14 -3 32 -6 40 -7z m-1877 -28 c6 -23 3 -24 -24 -9 -16 8
-18 13 -9 25 15 17 26 11 33 -16z m-228 -19 c-6 -21 -25 -29 -25 -11 0 6 5 10
10 10 6 0 10 8 10 17 0 9 3 14 6 10 3 -3 3 -15 -1 -26z m3245 -16 c0 -32 -2
-35 -30 -35 -35 0 -38 10 -10 35 11 10 17 22 14 26 -3 5 2 9 10 9 12 0 16 -10
16 -35z m-328 -18 c32 -52 33 -58 23 -131 -5 -43 -14 -64 -32 -79 -13 -12 -21
-27 -18 -35 2 -7 1 -11 -3 -8 -4 2 -12 -7 -19 -20 -6 -14 -7 -26 -2 -30 15 -9
10 -37 -5 -31 -11 4 -16 -4 -18 -31 -2 -29 -8 -38 -24 -40 -12 -2 -25 -13 -29
-25 -7 -20 -8 -20 -12 -3 -3 10 -1 21 4 25 4 3 9 15 11 25 2 10 10 25 18 33
15 15 17 25 14 61 -1 14 4 22 14 22 9 0 16 8 16 20 0 11 -6 20 -12 20 -9 0 -8
3 2 10 12 8 12 10 -2 15 -14 6 -11 12 17 36 19 17 39 46 45 65 11 32 9 41 -14
86 -30 58 -30 58 -13 58 6 0 24 -19 39 -43z m-2789 -10 c-4 -24 -12 -39 -25
-43 -28 -9 -35 4 -11 21 11 8 24 26 27 41 10 38 16 25 9 -19z m846 7 c-45 -25
-91 -7 -53 20 13 10 25 11 47 3 l30 -10 -24 -13z m2091 15 c0 -5 -4 -9 -10 -9
-5 0 -10 7 -10 16 0 8 5 12 10 9 6 -3 10 -10 10 -16z m-216 -18 c9 -10 19 -34
22 -52 11 -65 -59 -115 -100 -73 -23 22 -20 86 5 118 24 31 49 33 73 7z
m-1684 -52 l0 -41 -47 7 c-78 11 -83 20 -27 48 68 36 74 34 74 -14z m916 8
c35 -5 23 -22 -29 -39 -29 -10 -53 -18 -54 -18 -5 0 -3 59 3 73 5 13 9 13 33
1 15 -7 36 -15 47 -17z m1204 9 c0 -14 -12 -38 -26 -55 l-26 -31 -29 31 c-33
35 -37 59 -11 59 11 0 13 -3 5 -8 -7 -4 -9 -13 -4 -21 10 -15 31 -6 31 13 0
12 33 34 53 35 4 1 7 -10 7 -23z m-3081 5 c8 -5 11 -16 7 -26 -6 -17 -7 -17
-26 0 -28 25 -13 46 19 26z m41 -52 c-7 -11 -14 -19 -16 -16 -7 7 7 37 17 37
6 0 5 -9 -1 -21z m3370 7 c0 -8 -4 -18 -10 -21 -5 -3 -10 3 -10 14 0 12 5 21
10 21 6 0 10 -6 10 -14z m-3512 -30 c-29 -28 -36 -24 -14 9 9 14 21 23 27 19
6 -3 1 -15 -13 -28z m112 -11 c0 -8 -9 -20 -20 -27 -13 -8 -20 -24 -20 -42 0
-35 -15 -25 -25 17 -6 23 -4 27 13 27 12 0 23 9 27 20 7 23 25 27 25 5z m2819
-40 c-7 -53 -54 -166 -72 -174 -5 -2 -18 -12 -28 -22 -16 -16 -19 -16 -19 -3
0 8 7 22 16 31 8 9 13 22 9 31 -8 21 4 52 21 52 8 0 14 7 14 15 0 8 5 15 11
15 8 0 8 4 0 14 -6 7 -9 24 -7 37 3 13 5 29 5 36 1 6 10 9 21 6 11 -3 20 0 20
6 0 6 4 11 8 11 5 0 5 -25 1 -55z m149 39 c18 -15 17 -17 -15 -49 -18 -18 -33
-40 -33 -48 0 -9 -14 -21 -30 -29 -17 -7 -28 -18 -25 -26 2 -7 -6 -17 -21 -22
-35 -14 -36 -13 -21 18 8 15 22 53 31 85 25 79 71 108 114 71z m478 -20 c19
-9 34 -20 34 -25 0 -6 -8 -6 -17 -2 -24 11 -52 10 -61 -2 -4 -6 -15 -16 -25
-24 -17 -13 -18 -12 -11 15 4 16 11 31 17 33 5 2 3 7 -4 12 -26 16 31 10 67
-7z m169 -34 c4 -7 -6 -10 -29 -8 -19 1 -32 6 -30 10 7 12 52 10 59 -2z
m-3360 -30 c3 -5 -1 -14 -8 -22 -7 -7 -16 -21 -20 -30 -3 -10 -13 -18 -22 -18
-8 0 -15 -9 -15 -19 0 -11 -6 -26 -13 -33 -8 -7 -16 -20 -20 -28 -3 -8 -6 1
-6 21 -1 19 4 40 11 47 7 7 9 12 5 12 -8 0 18 55 35 76 9 12 45 8 53 -6z
m-484 -40 c48 -50 37 -51 -24 -4 -52 41 -54 44 -30 44 9 0 33 -18 54 -40z
m169 -9 c0 -14 -2 -14 -10 -1 -12 20 -20 10 -25 -35 -6 -41 -12 -55 -24 -55
-13 0 -2 72 15 97 16 25 44 21 44 -6z m3420 -25 c0 -3 -4 -8 -10 -11 -5 -3
-10 -1 -10 4 0 6 5 11 10 11 6 0 10 -2 10 -4z m-915 -92 c48 -48 53 -58 42
-74 -16 -26 -108 -46 -137 -30 -51 27 -59 130 -10 130 11 0 20 7 20 15 0 29
32 14 85 -41z m898 19 c3 -18 2 -33 -1 -33 -4 0 -20 -29 -37 -65 -16 -35 -33
-64 -36 -65 -7 0 44 171 56 191 9 14 12 10 18 -28z m130 -35 c5 -17 2 -19 -16
-14 -12 3 -30 6 -39 6 -17 0 -48 25 -48 39 0 5 22 4 49 -2 36 -7 51 -15 54
-29z m-3643 -6 c0 -13 -9 -18 -32 -19 -18 -1 -26 1 -18 4 8 4 21 12 28 20 18
17 22 17 22 -5z m70 1 c0 -5 -4 -14 -9 -21 -6 -10 -10 -9 -14 7 -3 14 0 21 9
21 8 0 14 -3 14 -7z m91 -19 c14 -38 3 -41 -16 -5 -9 18 -11 31 -5 31 6 0 15
-12 21 -26z m967 -57 c-3 -44 -1 -65 8 -72 12 -9 20 -35 23 -69 1 -5 9 -2 19
7 25 23 42 21 42 -4 0 -52 -74 -109 -141 -109 -51 0 -109 29 -114 59 -3 14 -9
38 -14 53 -6 19 -5 28 4 32 7 2 15 17 19 31 12 47 54 99 104 127 28 17 48 23
51 17 2 -6 1 -39 -1 -72z m-862 26 c-10 -10 -19 5 -10 18 6 11 8 11 12 0 2 -7
1 -15 -2 -18z m1734 12 c7 -8 20 -15 29 -15 12 0 13 -2 3 -9 -10 -6 -5 -11 17
-21 17 -6 30 -15 29 -19 -1 -3 8 -27 20 -53 26 -56 27 -71 6 -104 -33 -50
-127 -73 -160 -39 -18 18 -38 20 -28 3 4 -7 3 -8 -4 -4 -7 4 -12 13 -12 19 0
7 -16 29 -36 50 l-36 37 28 2 c16 1 38 1 49 0 33 -2 66 8 60 18 -3 6 1 7 9 4
9 -3 16 -2 16 4 0 5 -9 12 -19 15 -16 4 -19 12 -16 51 1 26 -2 49 -6 52 -5 3
-9 9 -9 15 0 15 46 10 60 -6z m-1940 -19 c0 -3 -4 -8 -10 -11 -5 -3 -10 -1
-10 4 0 6 5 11 10 11 6 0 10 -2 10 -4z m207 -28 c-3 -8 -6 -5 -6 6 -1 11 2 17
5 13 3 -3 4 -12 1 -19z m2697 -50 c-8 -51 -30 -108 -41 -108 -5 0 -10 17 -11
37 -2 20 -8 43 -14 50 -12 15 -10 19 29 44 41 26 44 23 37 -23z m457 -41 c-8
-8 -11 -7 -11 4 0 20 13 34 18 19 3 -7 -1 -17 -7 -23z m-2936 4 c3 -6 -3 -9
-14 -8 -11 0 -17 5 -15 9 7 11 22 10 29 -1z m1460 -1 c3 -5 1 -10 -4 -10 -6 0
-11 5 -11 10 0 6 2 10 4 10 3 0 8 -4 11 -10z m-2303 -22 c-3 -14 -2 -19 6 -14
13 8 32 -31 32 -65 0 -14 -7 -19 -25 -19 -22 0 -24 2 -14 19 7 10 10 25 6 33
-7 20 -57 12 -64 -11 -8 -23 -82 -88 -117 -102 -25 -11 -30 -10 -42 6 -8 10
-14 28 -14 39 0 11 -7 27 -16 37 -14 16 -12 18 33 34 26 10 61 23 78 30 16 8
50 12 77 9 38 -3 48 0 48 11 0 8 4 15 9 15 5 0 7 -10 3 -22z m1878 -43 c0 -30
-2 -55 -5 -55 -4 0 -19 7 -35 15 -25 13 -30 21 -28 48 2 22 9 34 23 39 42 13
45 10 45 -47z m180 39 c0 -2 -7 -4 -15 -4 -8 0 -15 4 -15 10 0 5 7 7 15 4 8
-4 15 -8 15 -10z m-401 -16 c5 -13 7 -25 4 -28 -5 -6 -33 30 -33 42 0 17 21 7
29 -14z m121 13 c0 -5 3 -18 6 -28 5 -16 4 -16 -10 1 -18 23 -20 36 -6 36 6 0
10 -4 10 -9z m163 -12 c7 -27 -1 -49 -19 -49 -17 0 -18 22 -2 38 10 10 10 15
-2 22 -13 8 -13 10 1 10 9 0 19 -9 22 -21z m1827 -1 c0 -9 4 -8 10 2 8 13 15
12 47 -6 53 -31 54 -45 2 -44 -24 0 -56 -2 -71 -6 -21 -5 -28 -3 -28 8 0 23
12 29 29 16 13 -10 14 -10 4 2 -15 17 -17 40 -3 40 6 0 10 -6 10 -12z m-1710
-15 c0 -3 -9 -3 -20 0 -11 3 -20 1 -20 -4 0 -5 5 -9 10 -9 6 0 10 -8 10 -18 0
-10 -6 -19 -14 -19 -12 0 -20 42 -10 59 4 7 44 -1 44 -9z m-306 -61 c-22 -5
-44 17 -44 44 0 24 1 23 29 -8 22 -25 26 -34 15 -36z m163 -4 c-3 -8 -6 -5 -6
6 -1 11 2 17 5 13 3 -3 4 -12 1 -19z m765 -42 c72 -1 75 -6 13 -24 -46 -13
-70 -9 -143 24 -29 13 -60 24 -69 24 -15 0 -14 2 1 19 17 19 19 19 74 -11 46
-25 70 -31 124 -32z m-1847 27 c-4 -16 -7 -28 -8 -28 -1 -1 -15 -6 -31 -13
-28 -13 -56 -3 -56 19 0 20 42 49 71 49 29 0 31 -2 24 -27z m3121 -62 c48 -22
63 -55 33 -72 -11 -5 -27 -8 -37 -5 -9 3 -55 10 -101 15 -55 6 -89 15 -100 26
-15 15 -14 18 9 37 14 11 23 28 22 36 -2 9 4 21 13 28 14 10 26 7 68 -17 29
-16 70 -38 93 -48z m-2756 50 c0 -17 -29 -33 -50 -26 -37 12 -19 30 33 34 9 0
17 -3 17 -8z m2506 -43 c-13 -22 -20 -48 -17 -74 0 -6 14 -17 30 -24 16 -6 31
-20 34 -31 6 -22 -6 -25 -22 -6 -6 8 -29 22 -52 32 -39 18 -42 18 -54 1 -7 -9
-16 -13 -19 -8 -3 4 4 16 15 25 10 9 19 24 19 32 0 8 4 15 8 15 4 0 18 21 31
47 19 39 24 44 32 30 7 -11 5 -24 -5 -39z m-2592 17 c-4 -8 -15 -15 -26 -15
-16 0 -18 -3 -9 -14 11 -13 1 -29 -24 -38 -5 -1 -9 -8 -7 -15 3 -14 -38 -44
-50 -37 -17 11 -8 32 12 27 15 -4 20 0 20 15 0 11 -7 22 -15 26 -26 9 -17 25
28 45 52 24 78 26 71 6z m124 4 c-2 -6 -7 -10 -12 -9 -5 1 -13 -5 -18 -14 -5
-9 -22 -23 -38 -31 -27 -14 -30 -14 -30 0 0 8 15 21 34 29 18 8 37 19 40 25 9
14 29 14 24 0z m552 -4 c0 -8 -4 -15 -10 -15 -5 0 -7 -7 -4 -15 4 -8 1 -15 -6
-15 -8 0 -10 -8 -7 -21 4 -13 0 -22 -11 -26 -24 -9 -42 -36 -36 -52 2 -8 -5
-25 -17 -38 -13 -12 -19 -23 -15 -23 4 0 -5 -12 -19 -27 -25 -28 -34 -50 -15
-38 6 4 6 -3 -1 -18 -6 -14 -22 -30 -35 -37 -23 -13 -41 -40 -25 -40 5 0 20 9
35 21 14 11 26 17 26 12 0 -4 6 3 13 16 14 29 37 39 37 17 0 -50 64 26 89 106
11 35 22 72 25 83 2 11 4 -8 3 -42 -1 -33 1 -59 5 -57 9 6 21 85 22 152 2 89
21 72 23 -21 3 -86 -20 -285 -36 -315 -5 -9 -17 -34 -26 -54 -10 -24 -23 -38
-34 -38 -11 0 -21 -7 -25 -15 -3 -9 -19 -15 -41 -15 -21 0 -35 -5 -36 -12 0
-9 -2 -10 -5 -1 -3 6 9 37 27 68 17 31 29 58 26 61 -7 7 -97 -108 -97 -125 0
-24 -29 -9 -32 17 -2 15 -9 27 -15 27 -24 0 -18 11 22 46 73 62 78 69 50 69
-8 0 -15 -4 -15 -8 0 -5 -17 -17 -37 -28 -21 -10 -50 -27 -65 -37 -18 -11 -36
-16 -49 -12 l-21 7 22 20 c26 25 21 32 -13 19 -21 -8 -25 -7 -20 4 3 8 9 15
14 15 5 0 37 28 73 63 70 70 141 168 188 261 29 58 43 75 61 76 4 0 7 -7 7
-15z m270 1 c0 -2 3 -12 7 -22 5 -13 3 -15 -8 -9 -11 7 -12 6 -3 -6 6 -8 19
-37 28 -65 31 -94 113 -199 192 -246 46 -27 53 -46 25 -69 -13 -10 -27 -19
-32 -19 -17 0 -89 78 -89 95 0 9 -4 14 -9 11 -13 -8 -28 14 -66 94 -56 114
-84 240 -55 240 6 0 10 -2 10 -4z m755 -14 c-3 -3 -11 0 -18 7 -9 10 -8 11 6
5 10 -3 15 -9 12 -12z m-918 -54 c-2 -13 -4 -3 -4 22 0 25 2 35 4 23 2 -13 2
-33 0 -45z m93 16 c0 -8 -5 -12 -10 -9 -6 4 -8 11 -5 16 9 14 15 11 15 -7z
m778 1 c-37 -14 -75 -19 -118 -15 -36 3 64 27 115 28 l40 1 -37 -14z m-831
-27 c-3 -7 -5 -2 -5 12 0 14 2 19 5 13 2 -7 2 -19 0 -25z m-972 -23 c1 -15
-34 -37 -46 -29 -6 3 -15 1 -19 -6 -6 -10 -13 -8 -30 8 -22 20 -16 33 18 38 7
2 23 9 35 17 20 13 23 13 32 -2 5 -9 10 -20 10 -26z m1845 19 c0 -8 -4 -12
-10 -9 -5 3 -10 10 -10 16 0 5 5 9 10 9 6 0 10 -7 10 -16z m-40 -8 c0 -3 -4
-8 -10 -11 -5 -3 -10 -1 -10 4 0 6 5 11 10 11 6 0 10 -2 10 -4z m-3 -66 c-13
-10 -35 -22 -49 -25 -31 -8 -88 -87 -91 -126 -1 -16 -5 -29 -8 -29 -4 0 -9 -9
-12 -21 -10 -37 -27 -10 -27 42 0 44 4 53 41 89 23 22 48 40 55 40 8 0 14 5
14 10 0 13 81 51 92 44 5 -3 -2 -14 -15 -24z m-741 -17 c-10 -10 -19 5 -10 18
6 11 8 11 12 0 2 -7 1 -15 -2 -18z m828 -4 c-3 -5 -13 -9 -22 -9 -9 0 -30 -9
-47 -21 -16 -11 -48 -29 -70 -40 l-40 -21 32 32 c43 45 124 89 140 77 7 -5 10
-13 7 -18z m746 6 c-12 -13 -27 -22 -31 -19 -11 7 22 44 40 44 10 0 8 -7 -9
-25z m-1854 -53 c-14 -22 -29 -43 -35 -46 -15 -10 2 36 29 76 33 50 39 22 6
-30z m205 31 c0 -21 0 -62 -1 -90 -1 -32 3 -53 9 -53 10 0 16 73 13 140 -1 14
12 -12 29 -57 17 -46 35 -83 40 -83 11 0 12 13 0 26 -12 13 -20 113 -10 120 5
3 14 -7 20 -23 21 -57 62 -133 70 -133 6 0 13 -8 16 -17 4 -10 15 -27 26 -38
l18 -20 -6 20 c-3 11 1 8 10 -7 8 -16 20 -28 26 -28 5 0 2 -14 -6 -31 -16 -30
-17 -30 -36 -13 -17 16 -22 16 -29 4 -7 -10 -10 -11 -10 -2 0 6 -8 12 -18 12
-9 0 -23 9 -30 20 -17 27 -42 26 -42 -2 -1 -66 -31 -87 -76 -53 -19 15 -19 15
1 9 14 -5 10 2 -13 22 -31 28 -32 32 -34 109 -4 148 0 205 17 205 11 0 15 -11
16 -37z m-1773 -24 c-18 -11 -20 -5 -12 27 l7 28 9 -24 c6 -16 5 -26 -4 -31z
m3386 -3 c-3 -8 -18 -22 -32 -31 l-27 -16 24 20 c13 12 20 21 17 21 -4 0 -4 5
-1 10 10 15 25 12 19 -4z m-3345 -49 c8 -23 11 -52 7 -80 -6 -38 -14 -49 -52
-77 -25 -18 -58 -33 -73 -35 -15 -1 -33 -5 -39 -9 -19 -11 -14 11 13 62 14 26
25 53 25 60 0 7 7 15 15 18 8 4 12 10 9 15 -2 5 5 23 18 41 41 59 56 60 77 5z
m3392 1 c9 -7 30 -31 47 -54 24 -31 28 -44 20 -52 -16 -16 -28 -15 -28 3 0 8
-9 19 -19 25 -18 9 -61 69 -61 84 0 10 25 7 41 -6z m-1721 -35 c0 -21 -3 -24
-9 -14 -5 8 -7 20 -4 28 8 21 13 15 13 -14z m1672 -53 c10 -19 24 -40 31 -45
8 -6 17 -20 21 -32 4 -11 13 -27 21 -33 22 -19 18 -38 -7 -35 -22 3 -108 43
-118 55 -29 35 -96 52 -106 26 -7 -18 12 -165 33 -247 9 -37 13 -74 9 -84 -5
-14 -13 -9 -43 31 -20 27 -42 52 -49 57 -7 4 -17 22 -24 41 -7 23 -22 39 -48
52 -20 10 -39 20 -41 21 -6 4 131 133 141 133 4 0 8 5 8 10 0 6 16 27 36 49
31 32 42 38 78 37 37 -1 43 -5 58 -36z m-3269 5 c4 -8 2 -17 -3 -20 -6 -4 -10
3 -10 14 0 25 6 27 13 6z m1593 -32 c9 -81 15 -98 45 -128 24 -23 32 -41 34
-75 2 -24 0 -38 -4 -31 -6 10 -9 9 -14 -3 -3 -8 -1 -17 6 -20 7 -2 5 -5 -5 -5
-9 -1 -24 -11 -32 -23 -19 -26 -22 -63 -4 -52 7 4 8 3 4 -4 -12 -20 -43 4 -56
43 -6 19 -15 35 -20 35 -12 0 -33 68 -26 85 3 8 12 15 20 15 7 0 21 18 30 40
18 46 20 70 7 70 -5 0 -8 12 -6 28 2 15 4 38 4 51 1 35 12 19 17 -26z m474
-34 c0 -16 -52 -64 -89 -84 -30 -15 -31 -15 -29 9 1 14 6 22 10 20 5 -3 6 -10
3 -15 -4 -5 -3 -9 2 -9 14 1 43 27 43 39 0 6 5 11 10 11 6 0 10 9 10 20 0 13
7 20 20 20 11 0 20 -5 20 -11z m-870 -59 c0 -5 -4 -10 -10 -10 -5 0 -10 5 -10
10 0 6 5 10 10 10 6 0 10 -4 10 -10z m326 -15 c-1 -23 -26 -37 -26 -15 0 9 20
38 26 40 1 0 1 -11 0 -25z m273 1 c14 -16 5 -42 -16 -51 -23 -8 -33 14 -20 42
12 26 20 29 36 9z m-545 -12 c3 -8 2 -12 -4 -9 -6 3 -10 10 -10 16 0 14 7 11
14 -7z m-1171 -18 c16 -23 14 -44 -8 -98 -8 -20 -56 -38 -101 -38 -41 0 -47 9
-33 49 12 35 28 40 36 11 3 -11 9 -20 13 -20 5 0 10 -8 12 -17 3 -16 5 -16 15
3 9 15 9 32 1 64 -10 38 -9 45 7 56 27 20 41 17 58 -10z m1811 -36 c-15 -15
-74 -24 -74 -12 0 6 15 13 33 15 17 2 36 5 42 5 5 1 5 -2 -1 -8z m-544 -30 c0
-5 -2 -10 -4 -10 -3 0 -8 5 -11 10 -3 6 -1 10 4 10 6 0 11 -4 11 -10z m460
-11 c0 -5 -4 -9 -10 -9 -5 0 -10 7 -10 16 0 8 5 12 10 9 6 -3 10 -10 10 -16z
m-165 -88 c-3 -6 -11 -11 -17 -11 -6 0 -6 6 2 15 14 17 26 13 15 -4z m-1199
-139 c-16 -15 -25 -20 -21 -12 13 25 38 50 44 45 3 -3 -8 -18 -23 -33z m-66
-66 c0 -3 -4 -8 -10 -11 -5 -3 -10 -1 -10 4 0 6 5 11 10 11 6 0 10 -2 10 -4z
m331 -133 c6 -20 21 -52 32 -70 15 -26 17 -37 8 -46 -6 -6 -11 -20 -11 -30 0
-16 -5 -18 -27 -13 -16 4 -38 19 -50 33 -25 30 -45 100 -32 109 5 3 9 12 9 21
0 9 7 25 17 35 20 23 37 10 54 -39z m135 -82 l-13 -46 -1 56 c-1 31 -2 61 -3
65 -4 26 3 26 16 0 13 -24 13 -34 1 -75z m412 -50 c3 -42 -1 -69 -12 -91 -8
-18 -13 -36 -11 -41 3 -4 -4 -13 -15 -19 -11 -6 -20 -8 -20 -5 0 3 -8 1 -19
-4 -14 -8 -23 -6 -36 9 -16 18 -17 21 -1 45 10 15 12 25 6 25 -6 0 -10 10 -8
23 2 12 8 22 15 22 6 0 15 3 19 8 4 4 -1 7 -12 7 -16 0 -17 2 -4 10 8 5 12 10
8 10 -3 0 10 18 30 40 43 49 54 42 60 -39z m797 12 c6 -31 5 -33 -19 -33 -34
0 -46 42 -20 71 20 22 27 16 39 -38z m-521 21 c55 -21 59 -206 5 -234 -33 -18
-77 -20 -90 -3 -8 8 -13 44 -13 85 -1 55 3 72 17 82 18 14 24 32 7 21 -20 -12
-10 8 16 31 27 26 33 28 58 18z m-734 -45 c0 -14 -17 -10 -23 5 -4 10 -1 13 9
9 7 -3 14 -9 14 -14z m120 -20 c0 -10 18 -24 46 -36 52 -23 45 -37 -13 -27
-29 5 -43 15 -60 40 -26 41 -22 70 8 51 10 -6 19 -19 19 -28z m860 -83 c-16
-17 -28 -1 -18 24 10 24 11 24 18 5 4 -11 4 -24 0 -29z"/>
<path d="M3336 4758 c-40 -54 -67 -133 -60 -178 4 -22 10 -40 15 -40 5 0 8 -5
7 -12 -4 -16 119 -66 164 -67 32 -1 40 3 53 30 25 48 -3 83 -35 44 -14 -17
-62 -20 -90 -5 -39 21 -33 110 12 175 24 37 62 47 86 23 9 -9 12 -9 12 3 -1
34 -44 59 -105 59 -27 0 -39 -7 -59 -32z"/>
<path d="M2617 4253 c-10 -10 -8 -63 2 -63 11 0 21 25 21 51 0 19 -11 25 -23
12z"/>
<path d="M2650 4205 c0 -16 6 -25 15 -25 9 0 15 9 15 25 0 16 -6 25 -15 25 -9
0 -15 -9 -15 -25z"/>
<path d="M2707 4204 c-12 -12 -8 -34 7 -34 8 0 16 -7 20 -15 13 -35 48 -10 38
27 -3 14 -8 15 -23 8 -13 -8 -20 -6 -27 5 -4 9 -11 12 -15 9z"/>
<path d="M3950 4106 c0 -2 7 -7 16 -10 8 -3 12 -2 9 4 -6 10 -25 14 -25 6z"/>
<path d="M4195 3970 c-3 -6 1 -7 9 -4 18 7 21 14 7 14 -6 0 -13 -4 -16 -10z"/>
<path d="M4693 3224 c-38 -19 -58 -68 -48 -115 10 -43 68 -105 113 -120 20 -7
50 -25 67 -41 35 -34 85 -63 85 -49 0 5 -4 13 -10 16 -5 3 -10 21 -10 39 0 45
-38 86 -82 87 -56 2 -82 13 -89 39 -16 64 34 77 119 31 l52 -29 0 26 c-2 97
-108 160 -197 116z m133 -81 c-7 -7 -26 7 -26 19 0 6 6 6 15 -2 9 -7 13 -15
11 -17z m-11 -125 c14 -6 25 -15 25 -20 0 -13 -13 -10 -45 12 -33 22 -21 27
20 8z"/>
<path d="M640 3980 c-11 -11 -20 -25 -20 -31 0 -7 -9 -9 -21 -6 -14 4 -19 2
-15 -8 2 -7 -4 -21 -14 -30 -23 -21 -33 -55 -15 -55 8 0 21 10 29 21 l15 22
26 -32 c15 -17 33 -31 41 -31 8 0 14 -7 14 -15 0 -8 5 -15 10 -15 6 0 23 -15
39 -32 29 -33 29 -37 2 -77 -14 -22 -41 4 -41 40 0 34 -15 39 -23 8 -5 -18 -8
-19 -27 -7 -13 7 -30 18 -40 23 -37 22 -50 38 -50 62 0 34 -19 25 -52 -23 -31
-45 -35 -64 -12 -64 8 0 33 -13 55 -30 100 -76 116 -88 139 -100 13 -7 31 -19
38 -27 19 -19 31 -16 43 10 5 12 19 38 29 57 22 40 24 50 11 50 -6 0 -18 -13
-28 -30 -9 -16 -23 -30 -30 -30 -19 0 -16 14 8 36 11 10 27 34 35 53 14 35 14
35 -28 78 -47 48 -45 49 45 37 38 -5 47 -11 52 -32 l6 -26 35 38 c57 62 50 75
-56 102 -30 8 -72 26 -93 40 -64 42 -85 46 -107 24z m60 -95 c0 -12 -19 -12
-23 0 -4 9 -1 12 9 8 7 -3 14 -7 14 -8z"/>
<path d="M480 3648 c-49 -18 -110 -99 -110 -146 0 -27 54 -104 87 -124 32 -19
92 -25 138 -14 50 11 135 125 135 179 0 6 -16 -7 -36 -29 -19 -21 -33 -34 -29
-27 11 23 -36 112 -71 134 -47 29 -85 38 -114 27z m65 -66 c27 -23 75 -98 75
-117 0 -19 -41 -29 -87 -20 -40 7 -103 66 -103 96 0 22 46 59 74 59 11 -1 30
-8 41 -18z"/>
<path d="M2350 3788 c0 -9 5 -20 11 -23 17 -11 20 0 4 21 -13 17 -14 17 -15 2z"/>
<path d="M2375 3732 c3 -7 5 -16 5 -18 0 -2 6 -4 13 -4 7 0 13 9 14 19 1 14
-4 19 -18 18 -12 -1 -17 -6 -14 -15z"/>
<path d="M2460 3660 c0 -5 9 -10 20 -10 11 0 20 5 20 10 0 6 -9 10 -20 10 -11
0 -20 -4 -20 -10z"/>
<path d="M2647 3630 c5 -20 15 -25 26 -14 9 9 -4 34 -18 34 -8 0 -11 -8 -8
-20z"/>
<path d="M2620 3616 c0 -8 5 -18 10 -21 6 -3 10 3 10 14 0 12 -4 21 -10 21 -5
0 -10 -6 -10 -14z"/>
<path d="M4190 1780 c-12 -8 -10 -10 10 -10 14 0 32 5 40 10 12 8 10 10 -10
10 -14 0 -32 -5 -40 -10z"/>
<path d="M1701 1453 c-42 -18 -88 -110 -98 -199 -4 -34 -1 -45 19 -63 12 -13
35 -25 50 -28 15 -3 29 -11 32 -19 8 -22 79 -18 109 6 52 41 84 123 42 106
-19 -7 -8 64 13 84 13 13 14 13 9 -2 -4 -10 -2 -18 2 -18 5 0 9 23 9 50 1 45
-1 50 -21 50 -12 0 -35 7 -51 15 -33 17 -94 27 -115 18z m162 -65 c-2 -5 -9
-8 -14 -8 -6 0 -20 -12 -33 -27 -24 -28 -51 -27 -62 2 -13 33 3 44 59 42 31
-1 53 -5 50 -9z m-197 -70 c-11 -15 -16 -18 -16 -7 0 16 21 42 28 34 2 -2 -3
-14 -12 -27z m111 -53 c0 -15 -28 -21 -40 -8 -10 10 13 33 27 27 7 -3 13 -11
13 -19z"/>
<path d="M2295 2859 c-9 -13 3 -59 14 -59 11 0 24 48 16 60 -8 13 -22 13 -30
-1z"/>
<path d="M468 2292 c-16 -9 -28 -21 -28 -27 0 -23 -67 -74 -116 -88 l-50 -15
-14 32 c-7 17 -22 40 -33 50 -20 19 -20 19 -13 -40 13 -106 35 -159 58 -136 7
7 22 12 34 12 13 0 48 14 79 31 47 25 63 29 95 24 22 -4 40 -12 40 -20 0 -10
-73 -46 -105 -51 -5 0 -20 -5 -33 -9 -34 -11 -26 -49 11 -53 15 -2 27 2 27 8
0 6 5 8 11 5 5 -4 18 0 28 9 10 9 31 19 47 22 40 7 56 23 48 48 -4 12 -7 30
-8 41 -1 14 -12 23 -33 30 -41 11 -42 20 -3 34 32 10 35 23 24 80 -7 35 -25
39 -66 13z"/>
<path d="M580 1914 c0 -8 5 -12 10 -9 6 3 10 10 10 16 0 5 -4 9 -10 9 -5 0
-10 -7 -10 -16z"/>
<path d="M707 1605 c-5 -12 -29 -30 -108 -80 -9 -5 -35 -20 -57 -33 -52 -28
-66 -52 -51 -86 19 -42 49 -41 91 3 26 27 62 48 122 71 47 19 86 37 86 41 0
10 -27 36 -42 41 -10 4 -10 8 -1 20 10 11 10 17 1 26 -16 16 -35 15 -41 -3z"/>
<path d="M4740 1659 c0 -5 5 -7 10 -4 6 3 10 8 10 11 0 2 -4 4 -10 4 -5 0 -10
-5 -10 -11z"/>
<path d="M4385 1120 c-3 -5 -1 -10 4 -10 6 0 11 5 11 10 0 6 -2 10 -4 10 -3 0
-8 -4 -11 -10z"/>
<path d="M3825 780 c-3 -5 1 -10 9 -10 9 0 16 5 16 10 0 6 -4 10 -9 10 -6 0
-13 -4 -16 -10z"/>
<path d="M3473 749 c-29 -17 -53 -33 -53 -35 0 -3 14 -23 31 -44 27 -33 30
-42 19 -55 -10 -13 -9 -15 8 -15 15 0 25 -12 37 -44 10 -25 28 -55 41 -67 l24
-23 45 22 c32 15 43 26 39 37 -4 9 -13 13 -23 10 -13 -4 -23 6 -39 38 -27 55
-27 63 -1 70 25 7 86 -44 95 -79 7 -29 24 -30 55 -5 21 17 22 21 10 43 -13 25
-68 85 -133 146 -45 41 -85 42 -155 1z m92 -77 c-5 -14 -10 -10 -25 18 -13 25
-15 37 -7 42 15 9 41 -38 32 -60z"/>
<path d="M2780 2555 c0 -8 5 -15 10 -15 6 0 10 7 10 15 0 8 -4 15 -10 15 -5 0
-10 -7 -10 -15z"/>
<path d="M2221 2324 c0 -11 3 -14 6 -6 3 7 2 16 -1 19 -3 4 -6 -2 -5 -13z"/>
<path d="M2631 1254 c0 -11 3 -14 6 -6 3 7 2 16 -1 19 -3 4 -6 -2 -5 -13z"/>
<path d="M2654 1169 c-3 -6 -1 -16 5 -22 8 -8 11 -5 11 11 0 24 -5 28 -16 11z"/>
<path d="M2110 400 c0 -5 5 -10 11 -10 5 0 7 5 4 10 -3 6 -8 10 -11 10 -2 0
-4 -4 -4 -10z"/>
<path d="M2146 396 c3 -8 1 -17 -5 -21 -6 -3 -11 -10 -11 -16 0 -5 9 0 20 11
24 24 26 40 5 40 -8 0 -12 -6 -9 -14z"/>
</g>
</svg>
